<svg width="64" height="48" viewBox="0 0 64 48" fill="none" xmlns="http://www.w3.org/2000/svg">
<g clip-path="url(#clip0_3969_137)">
<path fill-rule="evenodd" clip-rule="evenodd" d="M49.214 23.981C49.214 33.4709 41.4723 41.2354 32.0103 41.2354C22.4254 41.2354 14.8066 33.4709 14.8066 23.981C14.8066 14.4911 22.5483 6.72656 32.0103 6.72656C41.4723 6.72656 49.214 14.4911 49.214 23.981Z" fill="white"/>
<path fill-rule="evenodd" clip-rule="evenodd" d="M48.5991 23.9811C48.5991 32.978 41.2261 40.3728 32.2556 40.3728C23.2851 40.3728 15.9121 33.1013 15.9121 23.9811C15.9121 14.9841 23.2851 7.58936 32.2556 7.58936C41.349 7.58936 48.5991 14.9841 48.5991 23.9811Z" fill="#E52528"/>
<path fill-rule="evenodd" clip-rule="evenodd" d="M32.2567 42.4679C22.0574 42.4679 13.8242 34.2104 13.8242 23.981C13.8242 13.7516 22.0574 5.49414 32.2567 5.49414C39.1382 5.49414 45.5281 9.31476 48.6002 15.4771C48.846 15.8468 48.6002 16.3398 48.2316 16.463C47.8629 16.7095 47.3714 16.463 47.2485 16.0933C44.4222 10.424 38.5238 6.97309 32.2567 6.97309C22.9176 6.97309 15.2988 14.6143 15.2988 23.981C15.2988 33.3477 22.9176 40.9889 32.2567 40.9889C38.6467 40.9889 44.4222 37.4148 47.3714 31.8688C47.6171 31.499 47.9858 31.3758 48.3544 31.6223C48.7231 31.8688 48.846 32.2385 48.6002 32.6082C45.4052 38.6473 39.1382 42.4679 32.2567 42.4679Z" fill="#221F20"/>
<path fill-rule="evenodd" clip-rule="evenodd" d="M25.9889 27.555H29.1839V30.5129H19.1074V27.555H22.3024V21.2695C21.0736 21.7624 20.2134 22.1322 19.4761 22.2554V19.2975C21.3193 18.9278 22.5482 18.1883 23.2855 17.0791H25.9889V27.555Z" fill="white"/>
<path d="M26.236 16.8325H23.041L22.9181 16.9558C22.3037 17.9417 21.0749 18.6812 19.2316 19.0509H19.1087V22.3786H19.3545C19.9689 22.2553 20.7062 22.0088 21.6893 21.6391L21.8122 21.5159V27.1852H18.6172V30.6361H29.0623V27.3084H25.8673V16.8325H26.236ZM25.8673 17.3255V27.6782H29.0623V30.2663H19.3545V27.6782H22.5495V20.8996L22.1808 21.0229L21.935 21.1461C21.0749 21.5159 20.3376 21.7624 19.7231 21.8856V19.2974C21.4435 18.9277 22.6723 18.1882 23.4096 17.2023H25.8673V17.3255Z" fill="#221F20"/>
<path fill-rule="evenodd" clip-rule="evenodd" d="M36.6813 22.3788C37.1728 22.1323 37.5415 21.7625 37.5415 21.1463C37.5415 20.7766 37.4186 20.4068 37.0499 20.1603C36.8042 19.9138 36.3126 19.7906 35.8211 19.7906C35.4524 19.7906 35.0838 19.9138 34.9609 20.0371C34.5923 20.2836 34.4694 20.5301 34.4694 20.7766C34.4694 21.2696 34.838 21.6393 35.4524 21.8858L36.6813 22.3788ZM34.838 25.4599C34.2236 25.8296 33.9778 26.1994 33.9778 26.8156C33.9778 27.1854 34.1007 27.5551 34.4694 27.8016C34.838 28.0481 35.3296 28.1713 35.944 28.1713C36.4355 28.1713 36.8042 28.0481 37.0499 27.9248C37.2957 27.6783 37.4186 27.4318 37.4186 27.1854C37.4186 26.6924 37.0499 26.3226 36.3126 25.9529L34.838 25.4599ZM39.1389 23.3647C40.4907 24.1042 41.228 25.2134 41.228 26.5691C41.228 27.9248 40.7364 28.9108 39.6305 29.6503C38.6474 30.3897 37.2957 30.7595 35.6982 30.7595C34.1007 30.7595 32.749 30.3897 31.8888 29.7735C31.0286 29.1573 30.5371 28.1713 30.5371 27.1854C30.5371 25.8296 31.2744 24.8437 32.6261 24.2275C31.5202 23.488 30.9058 22.502 30.9058 21.2696C30.9058 20.1603 31.3973 19.1744 32.2575 18.4349C33.1177 17.6954 34.3465 17.3257 35.944 17.3257C37.2957 17.3257 38.5245 17.6954 39.3847 18.3117C40.3678 18.8046 40.7364 19.6674 40.7364 20.6533C40.7364 21.1463 40.6135 21.6393 40.4907 22.009C40.2449 22.502 39.7534 22.8717 39.1389 23.3647Z" fill="white"/>
<path d="M35.9435 16.9561C37.4181 16.9561 38.6469 17.3258 39.5071 17.942C40.4902 18.6815 40.9817 19.5442 40.9817 20.6534C40.9817 21.1464 40.8588 21.6394 40.6131 22.1324C40.4902 22.5021 40.1215 22.8719 39.63 23.2416C40.7359 24.1043 41.3504 25.0903 41.3504 26.446V26.5692V26.6925C41.3504 28.0482 40.8588 29.1574 39.7529 29.8969C38.6469 30.6363 37.2952 31.0061 35.5748 31.0061C33.8545 31.0061 32.5028 30.6363 31.6426 29.8969C30.6595 29.1574 30.168 28.2947 30.168 27.0622C30.168 25.7065 30.7824 24.7205 31.8883 24.1043C31.0282 23.4881 30.5366 22.6254 30.5366 21.3929V21.2697V21.1464C30.5366 19.914 31.0282 18.928 31.8883 18.0653C33.1172 17.449 34.346 16.9561 35.9435 16.9561ZM35.9435 17.449C34.4689 17.449 33.2401 17.8188 32.3799 18.5583C31.5197 19.2977 31.151 20.1604 31.151 21.2697C31.151 22.5021 31.6426 23.3648 32.6256 23.9811L32.9943 24.2276L32.6256 24.3508C31.3968 24.967 30.6595 25.8298 30.6595 27.1855C30.6595 28.1714 31.0282 29.0341 31.8883 29.6504C32.7485 30.2666 33.9774 30.6363 35.5748 30.6363C37.1723 30.6363 38.6469 30.1434 39.5071 29.5271C40.4902 28.9109 40.9817 27.9249 40.9817 26.6925C40.9817 25.3368 40.3673 24.3508 39.0156 23.7346H38.8927L38.6469 23.3648L38.8927 23.1183C39.63 22.6254 39.9986 22.2556 40.2444 21.8859C40.4902 21.5162 40.4902 21.1464 40.4902 20.6534C40.4902 19.6675 40.1215 18.928 39.2613 18.3118C38.4012 17.6955 37.2952 17.449 35.9435 17.449ZM34.7147 25.2135L36.435 25.7065C37.2952 26.0762 37.6639 26.446 37.6639 27.0622C37.6639 27.432 37.541 27.6784 37.1723 27.9249C36.9266 28.1714 36.435 28.2947 35.9435 28.2947C35.3291 28.2947 34.7147 28.1714 34.346 27.8017C33.9774 27.6784 33.7316 27.1855 33.7316 26.8157C33.7316 26.1995 34.1002 25.7065 34.7147 25.2135ZM34.8375 25.7065C34.346 25.953 34.1002 26.3227 34.1002 26.8157C34.1002 27.1855 34.2231 27.432 34.5918 27.6784C34.8375 27.9249 35.3291 28.0482 35.9435 28.0482C36.435 28.0482 36.8037 27.9249 36.9266 27.8017C37.1723 27.6784 37.2952 27.432 37.2952 27.1855C37.2952 26.8157 37.0494 26.446 36.3121 26.1995L34.8375 25.7065ZM35.6977 19.5442C36.3121 19.5442 36.8037 19.6675 37.0494 20.0372C37.541 20.2837 37.6639 20.6534 37.6639 21.1464C37.6639 21.7626 37.4181 22.2556 36.8037 22.5021H36.6808L35.452 22.0091C34.5918 21.7626 34.2231 21.3929 34.2231 20.7767C34.2231 20.4069 34.346 20.1604 34.5918 19.914C34.9604 19.6675 35.3291 19.5442 35.6977 19.5442ZM35.6977 20.0372C35.3291 20.0372 35.0833 20.0372 34.9604 20.2837C34.8375 20.4069 34.7147 20.5302 34.7147 20.7767C34.7147 21.1464 34.9604 21.5162 35.452 21.7626L36.5579 22.2556C37.0494 21.8859 37.1723 21.6394 37.2952 21.2697C37.2952 20.8999 37.1723 20.6534 36.9266 20.4069C36.5579 20.1604 36.1893 20.0372 35.6977 20.0372Z" fill="#221F20"/>
<path fill-rule="evenodd" clip-rule="evenodd" d="M46.1416 18.8047H49.0908V22.3788H52.7773V25.3367H49.0908V29.0341H46.1416V25.3367H42.4551V22.3788H46.1416V18.8047Z" fill="white"/>
<path d="M49.3382 18.5581H45.8974V22.1322H42.2109V25.5831H45.8974V29.2805H49.3382V25.5831H53.0247V22.1322H49.3382V18.5581ZM48.9695 18.9278V22.502H52.656V25.0901H48.9695V28.7875H46.389V25.0901H42.7025V22.502H46.389V18.9278H48.9695Z" fill="#221F20"/>
</g>
<defs>
<clipPath id="clip0_3969_137">
<rect width="39.3227" height="36.9738" fill="white" transform="translate(13.7012 5.49414)"/>
</clipPath>
</defs>
</svg>
