<svg width="36" height="36" viewBox="0 0 36 36" fill="none" xmlns="http://www.w3.org/2000/svg">
<path d="M24.3195 12.0693L19.1816 30.7353C19.1995 30.7162 19.2174 30.6957 19.2328 30.674L23.6791 24.9339C23.3902 24.7575 22.9594 24.7307 22.673 24.5542C21.8753 24.0748 21.9942 22.5752 22.9402 22.3362H22.9389C23.7673 22.216 24.4551 21.6344 24.7108 20.8379L24.8233 20.4531V20.4518C24.9716 19.9699 25.428 19.6477 25.9317 19.672C26.4648 19.6247 26.9646 19.9315 27.1641 20.4263L32.0565 14.1021C32.183 13.9359 32.2712 13.7454 32.3185 13.5421L24.3195 12.0693Z" fill="white"/>
<path d="M11.0647 11.1399C10.6223 10.4713 8.56537 7.36974 8.16904 6.77148C8.13708 6.7881 3.9721 12.1702 3.94395 12.1983V12.197C3.87748 12.2865 3.82123 12.3837 3.77393 12.4847C4.70462 12.3159 10.0151 11.3343 11.0647 11.1399Z" fill="white"/>
<path d="M23.2621 12.0371H12.7383L18.0002 31.1505L23.2621 12.0371Z" fill="white"/>
<path d="M32.2208 12.4851C32.1787 12.3803 32.1211 12.2819 32.0508 12.1924L27.846 6.78585L27.8307 6.77051L24.9351 11.1389L32.2208 12.4851Z" fill="white"/>
<path d="M18.0051 32.9213H18.0358L18 32.7871C17.9846 32.874 17.9309 32.9303 18.0051 32.9213Z" fill="white"/>
<path d="M12.0606 10.7762C12.7177 9.89025 15.7693 5.77381 16.3574 4.97461L9.11384 6.22744C9.09338 6.23256 9.06782 6.23767 9.04736 6.24278C9.45135 6.84107 11.6132 10.1036 12.0606 10.7762Z" fill="white"/>
<path d="M22.8314 11.0116C22.1756 10.1244 18.7621 5.50292 18.1858 4.72827C18.0631 4.71037 17.9378 4.71037 17.8151 4.72827C17.2539 5.48509 13.8073 10.145 13.1694 11.0116H22.8314Z" fill="white"/>
<path d="M23.9392 10.7762C24.3994 10.0794 26.5369 6.8669 26.9473 6.24279C26.8885 6.21339 19.7064 4.99251 19.6426 4.97461C20.2076 5.74295 23.3027 9.91806 23.9392 10.7762Z" fill="white"/>
<path d="M10.8334 18.6001C10.9139 18.5745 10.9689 18.4991 10.9689 18.4147C10.9689 18.3303 10.9139 18.2549 10.8334 18.2306L10.4486 18.1168C9.44501 17.8253 8.66135 17.0404 8.36857 16.0381L8.25607 15.6533C8.22539 15.5779 8.15252 15.5293 8.0707 15.5293C7.99016 15.5293 7.91729 15.5779 7.88661 15.6533C7.67184 16.8179 6.8268 17.7678 5.69415 18.1168L5.30934 18.2293V18.2306C5.2288 18.2549 5.17383 18.3303 5.17383 18.4147C5.17383 18.499 5.2288 18.5745 5.30934 18.6C6.47652 18.811 7.42768 19.6573 7.77409 20.7912C7.83418 20.9203 7.85336 21.3346 8.07197 21.3154C8.29057 21.3333 8.30975 20.9267 8.36984 20.7912H8.36856C8.71756 19.6586 9.66748 18.8135 10.8334 18.6001Z" fill="#09F7C7"/>
<path d="M11.6805 12.0693L3.68164 13.5421C3.73022 13.7466 3.82099 13.9396 3.94883 14.1071L6.04285 16.8122C6.62837 16.4198 6.76131 15.7972 6.97224 15.1797C7.21002 14.8013 7.62551 14.5712 8.07296 14.5712C8.5204 14.5712 8.93715 14.8013 9.17495 15.1797C9.2312 15.2935 9.3143 15.6246 9.3552 15.7499H9.35393C9.60961 16.5438 10.2948 17.1242 11.1207 17.2431C12.105 17.4923 12.1984 19.0865 11.306 19.5122H11.3048C11.1194 19.5877 10.9289 19.649 10.7359 19.6976C10.0673 19.897 9.54568 20.4212 9.34879 21.0885L16.7622 30.6639C16.7046 30.0349 12.05 13.5689 11.6805 12.0693Z" fill="white"/>
<path d="M28.7552 23.3223C27.7005 23.1241 26.8146 22.4108 26.394 21.4226C26.3224 21.2449 26.2316 20.9291 26.1779 20.7399C26.1473 20.6658 26.0744 20.6172 25.9939 20.6172C25.912 20.6172 25.8392 20.6658 25.8085 20.7399C25.6091 21.8573 24.8254 22.7815 23.7554 23.1587C23.6505 23.1945 23.3412 23.2903 23.2312 23.3236V23.3223C23.1507 23.3466 23.0957 23.4207 23.0957 23.5051C23.0957 23.5895 23.1507 23.6623 23.2312 23.6866C23.2887 23.6981 23.5547 23.7864 23.616 23.8043V23.8055C24.7525 24.1494 25.5988 25.1018 25.8085 26.269C25.8341 26.3508 25.9082 26.4058 25.9939 26.4058C26.0782 26.4058 26.1524 26.3496 26.1779 26.269L26.2904 25.8791H26.2917C26.5819 24.8768 27.3669 24.0932 28.3704 23.8055L28.7552 23.6879V23.6866C28.8358 23.6636 28.8908 23.5895 28.8908 23.5051C28.8908 23.4207 28.8357 23.3466 28.7552 23.3223Z" fill="#09F7C7"/>
<path d="M8.3021 23.8364C7.43279 23.6779 6.72454 23.0489 6.46502 22.2039L6.37809 21.9111H6.37681C6.34612 21.837 6.27325 21.7871 6.19272 21.7871C6.11218 21.7871 6.03803 21.837 6.00735 21.9111C5.82581 22.8866 5.06261 23.651 4.08717 23.8364C4.00663 23.8607 3.95166 23.9348 3.95166 24.0179C3.95166 24.1023 4.00663 24.1765 4.08717 24.2007L4.37993 24.2877C5.22622 24.5446 5.85521 25.2554 6.00736 26.126C6.03292 26.2066 6.10707 26.2628 6.19273 26.2641C6.27838 26.2654 6.35508 26.2091 6.37682 26.126C6.53534 25.2567 7.16561 24.5472 8.00935 24.2877L8.30211 24.2007C8.38265 24.1765 8.43762 24.1023 8.43762 24.0179C8.43762 23.9348 8.38263 23.8607 8.3021 23.8364Z" fill="#09F7C7"/>
</svg>
