<svg width="48" height="48" viewBox="0 0 48 48" fill="none" xmlns="http://www.w3.org/2000/svg">
<path d="M36.0174 24.6352C38.2477 21.7289 38.7449 19.4332 38.3035 17.5072C38.3764 17.5088 38.4449 17.5155 38.5192 17.5155C38.8347 17.5155 39.1628 17.5007 39.5032 17.4714C42.5789 17.2021 47.0219 15.5728 46.7908 12.9325C46.6431 11.2282 44.748 10.418 43.1662 10.0366C43.2472 9.87356 43.3242 9.71087 43.3945 9.54933C44.4063 7.22433 43.8902 6.00792 43.2792 5.39714C42.2046 4.32244 40.3985 4.63993 38.641 5.51553C38.2602 3.93259 37.4502 2.03324 35.7447 1.8855C34.8871 1.81026 33.6208 2.19651 32.4904 4.46503C31.8168 5.81714 31.3481 7.533 31.2044 9.17386C31.1675 9.5996 31.1619 10.0008 31.1716 10.3896C29.6753 10.0519 27.9581 10.2799 25.9117 11.4279C25.802 11.469 25.6992 11.5292 25.603 11.6035C24.3258 12.3659 22.9221 13.4824 21.3656 15.0389C20.0283 16.3763 18.6463 17.9571 17.307 19.6745C16.4455 18.3762 15.1725 17.4427 13.6888 17.0484C14.3641 15.2661 15.835 14.0671 18.1746 13.3687C18.8095 13.1791 19.1707 12.5107 18.981 11.8755C18.7914 11.2403 18.1232 10.8796 17.4878 11.069C16.5909 11.3368 15.7841 11.677 15.065 12.084C14.9596 11.0671 14.5886 9.97437 13.6769 9.06276C11.4883 6.87464 7.13479 6.8362 6.65198 6.83925C5.99479 6.843 5.463 7.37503 5.45901 8.03222C5.4562 8.52089 5.49417 12.8692 7.68253 15.0571C8.7913 16.1661 10.1677 16.4749 11.3501 16.479C11.3032 16.6171 11.2646 16.7605 11.2244 16.9029C8.51421 17.2769 6.34463 19.3892 5.80847 22.3045C5.53308 23.8071 4.69448 25.4329 3.8069 27.1539C2.52534 29.6392 1.19995 32.2089 1.19995 35.02C1.19995 40.6914 5.47308 44.3561 12.0864 44.3561C14.3668 44.3561 16.4487 43.8911 18.1599 43.0122C21.6061 44.7258 25.425 45.6421 29.3292 45.6421C35.3782 45.6421 41.2225 43.4573 45.786 39.49C46.3975 38.9585 46.7564 38.2164 46.7964 37.4008C46.8365 36.5814 46.5363 35.7698 45.9726 35.1738L36.0174 24.6352ZM41.3482 33.775C38.0537 36.7777 33.8298 38.4217 29.3292 38.4217C24.8283 38.4217 20.6044 36.7777 17.3099 33.775L28.2904 22.1489C28.836 21.5714 29.8223 21.5714 30.3679 22.1489L41.3482 33.775ZM44.3732 13.1442C44.0669 13.6725 42.033 14.8406 39.2955 15.0806C39.057 15.1012 38.8299 15.1105 38.6104 15.1129C39.2483 14.7568 39.9186 14.2566 40.615 13.5602C41.033 13.1422 41.4303 12.6849 41.7974 12.2073C43.3699 12.4479 44.1713 12.9188 44.3732 13.1442ZM41.4435 7.10315C41.4888 7.10315 41.5291 7.10644 41.5638 7.11253C41.6707 7.71253 40.8639 9.9173 38.9182 11.8628C37.5316 13.2492 36.1801 13.7616 35.5468 13.1471C35.5439 13.1441 35.541 13.1411 35.538 13.1381C35.5221 13.1222 35.5059 13.1068 35.49 13.091C35.3764 12.9646 35.1843 12.6789 35.3053 12.104C35.4489 11.4201 35.9847 10.5869 36.8132 9.75815C38.6463 7.92534 40.7088 7.10315 41.4435 7.10315ZM33.5953 9.38245C33.8353 6.64308 35.0034 4.60894 35.5319 4.30284C35.7575 4.50482 36.229 5.30793 36.4695 6.88384C35.9722 7.2647 35.5121 7.66554 35.1164 8.06128C34.4221 8.75544 33.9198 9.42443 33.5639 10.0604C33.566 9.85009 33.574 9.62811 33.5953 9.38245ZM23.0627 16.7357C24.2225 15.5759 25.2479 14.7098 26.1639 14.0772L27.066 14.9793C27.3002 15.2137 27.6075 15.3309 27.9145 15.3309C28.2215 15.3309 28.5288 15.2137 28.7629 14.9793C29.2317 14.5108 29.2317 13.751 28.7629 13.2825L28.3834 12.9029C30.986 12.0101 32.4598 13.4541 33.8083 14.8024C33.819 14.8134 33.8286 14.8262 33.8395 14.8371C33.8504 14.8479 33.8628 14.8576 33.8738 14.8683C35.9395 16.9442 37.268 18.9007 34.3475 22.8671L32.1126 20.5007C31.3926 19.7383 30.378 19.3012 29.3292 19.3012C28.2803 19.3012 27.2657 19.7383 26.5457 20.5007L25.2698 21.8517L24.224 20.8059C23.7557 20.3371 22.9954 20.3371 22.5271 20.8059C22.0584 21.2744 22.0584 22.0343 22.5271 22.5028L23.6214 23.597L20.3244 27.0879C19.4505 25.3923 18.6304 23.7895 18.3595 22.3038C18.3572 22.2915 18.3536 22.28 18.3513 22.2677C19.8897 20.1945 21.5104 18.2884 23.0627 16.7357ZM9.3794 13.36C8.47589 12.4565 8.08401 10.6514 7.93636 9.31659C9.27136 9.46448 11.0765 9.85636 11.98 10.7599C12.9093 11.6892 12.741 13.1568 12.5613 13.9408C11.7766 14.1208 10.3073 14.2882 9.3794 13.36ZM12.0864 41.9561C7.9837 41.9561 3.59995 40.1341 3.59995 35.02C3.59995 32.7914 4.7894 30.4846 5.93995 28.2541C6.86878 26.4529 7.82948 24.5903 8.16909 22.7378C8.46405 21.1339 9.50676 19.9101 10.8627 19.4446C10.8545 19.8353 10.8581 20.233 10.8876 20.6463C10.9328 21.2782 11.4595 21.7607 12.0834 21.7607C12.112 21.7607 12.141 21.7598 12.1701 21.7577C12.831 21.7106 13.3286 21.1364 13.2815 20.4752C13.2555 20.1107 13.2519 19.7647 13.2601 19.4282C14.6377 19.8808 15.7003 21.1144 15.9986 22.7362C16.3368 24.5894 17.2954 26.4496 18.2224 28.2487C18.3404 28.4777 18.4563 28.7104 18.574 28.9412L12.6867 35.1726C12.119 35.7728 11.8296 36.5575 11.871 37.3825C11.9125 38.208 12.2976 38.9936 12.9274 39.5381C13.7488 40.2479 14.6128 40.8981 15.5105 41.4906C14.476 41.7947 13.3234 41.9561 12.0864 41.9561ZM44.2115 37.6788C40.0846 41.2664 34.7995 43.2421 29.3292 43.2421C23.8832 43.2421 18.6157 41.2818 14.4967 37.7221C14.3582 37.6024 14.2769 37.439 14.268 37.2618C14.2621 37.1456 14.2856 36.975 14.4307 36.8214L15.6583 35.523C19.4001 38.9493 24.2078 40.8217 29.3292 40.8217C34.4503 40.8217 39.258 38.9493 43 35.523L44.2284 36.8224C44.3882 36.9914 44.4042 37.1838 44.3992 37.2834C44.3939 37.394 44.3568 37.5525 44.2115 37.6788Z" fill="#FF7B00"/>
<path d="M22.9004 30.2915C22.3499 29.9221 21.6046 30.0693 21.2354 30.6196L20.5977 31.5712C20.2288 32.1217 20.3762 32.8673 20.927 33.236C21.1321 33.3733 21.3641 33.4392 21.5936 33.4392C21.9805 33.4392 22.3604 33.2524 22.5918 32.9067L23.2286 31.9565C23.5977 31.4062 23.4507 30.6606 22.9004 30.2915Z" fill="#FF7B00"/>
<path d="M27.0997 32.0306C26.4517 31.9028 25.8186 32.3254 25.6904 32.9756L25.4692 34.0989C25.341 34.7491 25.764 35.38 26.4144 35.5082C26.4927 35.5237 26.5708 35.5312 26.6479 35.5312C27.2094 35.5312 27.711 35.1349 27.8237 34.5632L28.045 33.4399C28.1732 32.7897 27.7501 32.1588 27.0997 32.0306Z" fill="#FF7B00"/>
<path d="M31.568 32.0301C30.9177 32.1581 30.4944 32.7888 30.6221 33.4392L30.8436 34.563C30.9563 35.1349 31.4579 35.531 32.0195 35.531C32.0966 35.531 32.1746 35.5235 32.2529 35.508C32.9033 35.3798 33.3263 34.7488 33.1981 34.0987L32.9771 32.976C32.8494 32.3256 32.2173 31.904 31.568 32.0301Z" fill="#FF7B00"/>
<path d="M36.0756 32.9073C36.3072 33.2528 36.6869 33.4394 37.0736 33.4394C37.3033 33.4394 37.5356 33.3735 37.7406 33.2359C38.2912 32.8668 38.4381 32.1215 38.0692 31.5709L37.4317 30.6198C37.0626 30.0695 36.3168 29.9219 35.7667 30.2917C35.2164 30.6608 35.0695 31.4064 35.4386 31.9567L36.0756 32.9073Z" fill="#FF7B00"/>
<path d="M27.5494 25.7321C26.9227 25.5209 26.2404 25.8563 26.0281 26.4842L25.6205 27.6891C25.4081 28.317 25.7449 28.9981 26.3726 29.2105C26.5001 29.2536 26.6297 29.274 26.7574 29.274C27.2578 29.274 27.7247 28.9585 27.8939 28.4584L28.3015 27.2534C28.5138 26.6255 28.177 25.9444 27.5494 25.7321Z" fill="#FF7B00"/>
<path d="M30.3656 27.2537L30.7732 28.4586C30.9424 28.9587 31.4093 29.2742 31.9097 29.2742C32.0372 29.2742 32.167 29.2538 32.2945 29.2107C32.9222 28.9983 33.259 28.3173 33.0466 27.6894L32.639 26.4844C32.4269 25.857 31.7454 25.5205 31.1177 25.7323C30.49 25.9447 30.1532 26.6258 30.3656 27.2537Z" fill="#FF7B00"/>
</svg>
