<svg width="32" height="32" viewBox="0 0 32 32" fill="none" xmlns="http://www.w3.org/2000/svg">
<path fill-rule="evenodd" clip-rule="evenodd" d="M5.57758 4H13.7026C13.9937 4 14.2303 4.25215 14.2303 4.56238V13.2208C14.2303 13.531 13.9937 13.7832 13.7026 13.7832H5.57758C5.28646 13.7832 5.04984 13.531 5.04984 13.2208V4.56238C5.04984 4.25215 5.28646 4 5.57758 4ZM21.7828 17.2354C23.1777 17.2354 24.4401 17.8382 25.3541 18.8123C26.2682 19.7863 26.8332 21.1324 26.8332 22.6181C26.8332 24.1045 26.2675 25.4498 25.3541 26.4239C24.4401 27.3979 23.177 28 21.7828 28C20.3879 28 19.1255 27.3972 18.2115 26.4239C17.2974 25.4498 16.7317 24.1038 16.7317 22.6181C16.7317 21.1316 17.2974 19.7863 18.2115 18.8123C19.1255 17.8382 20.3886 17.2354 21.7828 17.2354ZM13.3791 17.8382C13.5846 17.6184 13.9192 17.6184 14.1255 17.8382C14.3317 18.058 14.3317 18.4138 14.1255 18.6336L10.3865 22.6181L14.1255 26.6025C14.3317 26.8223 14.3317 27.1781 14.1255 27.3979C13.9192 27.617 13.5853 27.617 13.3791 27.3979L9.64009 23.4135L5.90111 27.3979C5.69485 27.617 5.36096 27.617 5.1547 27.3979C4.94843 27.1781 4.94843 26.8223 5.1547 26.6025L8.89368 22.6181L5.1547 18.6336C4.94843 18.4138 4.94843 18.058 5.1547 17.8382C5.36096 17.6184 5.69485 17.6184 5.90111 17.8382L9.64009 21.8226L13.3791 17.8382ZM22.2415 4.28964L24.5829 8.61078L24.5836 8.61004L26.9291 12.9393C27.0746 13.2076 26.9891 13.5509 26.7373 13.706C26.6538 13.7575 26.5628 13.7817 26.4731 13.7817V13.7832H17.0911C16.8 13.7832 16.5634 13.531 16.5634 13.2208C16.5634 13.1039 16.5965 12.9959 16.6538 12.9062L18.9813 8.61004L18.9979 8.58137L21.3268 4.28376C21.471 4.01544 21.7925 3.92281 22.0443 4.07719C22.1298 4.12938 22.1966 4.20363 22.2415 4.28964Z" fill="#1A0945"/>
</svg>
