<svg width="148" height="38" viewBox="0 0 148 38" fill="none" xmlns="http://www.w3.org/2000/svg">
<path d="M24.3195 13.0693L19.1816 31.7353C19.1995 31.7162 19.2174 31.6957 19.2328 31.674L23.6791 25.9339C23.3902 25.7575 22.9594 25.7307 22.673 25.5542C21.8753 25.0748 21.9942 23.5752 22.9402 23.3362H22.9389C23.7673 23.216 24.4551 22.6344 24.7108 21.8379L24.8233 21.4531V21.4518C24.9716 20.9699 25.428 20.6477 25.9317 20.672C26.4648 20.6247 26.9646 20.9315 27.1641 21.4263L32.0565 15.1021C32.183 14.9359 32.2712 14.7454 32.3185 14.5421L24.3195 13.0693Z" fill="white"/>
<path d="M11.0647 12.1399C10.6223 11.4713 8.56537 8.36974 8.16904 7.77148C8.13708 7.7881 3.9721 13.1702 3.94395 13.1983V13.197C3.87748 13.2865 3.82123 13.3837 3.77393 13.4847C4.70462 13.3159 10.0151 12.3343 11.0647 12.1399Z" fill="white"/>
<path d="M23.2621 13.0371H12.7383L18.0002 32.1505L23.2621 13.0371Z" fill="white"/>
<path d="M32.2208 13.4851C32.1787 13.3803 32.1211 13.2819 32.0508 13.1924L27.846 7.78585L27.8307 7.77051L24.9351 12.1389L32.2208 13.4851Z" fill="white"/>
<path d="M18.0051 33.9213H18.0358L18 33.7871C17.9846 33.874 17.9309 33.9303 18.0051 33.9213Z" fill="white"/>
<path d="M12.0606 11.7762C12.7177 10.8902 15.7693 6.77381 16.3574 5.97461L9.11384 7.22744C9.09338 7.23256 9.06782 7.23767 9.04736 7.24278C9.45135 7.84107 11.6132 11.1036 12.0606 11.7762Z" fill="white"/>
<path d="M22.8314 12.0116C22.1756 11.1244 18.7621 6.50292 18.1858 5.72827C18.0631 5.71037 17.9378 5.71037 17.8151 5.72827C17.2539 6.48509 13.8073 11.145 13.1694 12.0116H22.8314Z" fill="white"/>
<path d="M23.9392 11.7762C24.3994 11.0794 26.5369 7.8669 26.9473 7.24279C26.8885 7.21339 19.7064 5.99251 19.6426 5.97461C20.2076 6.74295 23.3027 10.9181 23.9392 11.7762Z" fill="white"/>
<path d="M10.8334 19.6001C10.9139 19.5745 10.9689 19.4991 10.9689 19.4147C10.9689 19.3303 10.9139 19.2549 10.8334 19.2306L10.4486 19.1168C9.44501 18.8253 8.66135 18.0404 8.36857 17.0381L8.25607 16.6533C8.22539 16.5779 8.15252 16.5293 8.0707 16.5293C7.99016 16.5293 7.91729 16.5779 7.88661 16.6533C7.67184 17.8179 6.8268 18.7678 5.69415 19.1168L5.30934 19.2293V19.2306C5.2288 19.2549 5.17383 19.3303 5.17383 19.4147C5.17383 19.499 5.2288 19.5745 5.30934 19.6C6.47652 19.811 7.42768 20.6573 7.77409 21.7912C7.83418 21.9203 7.85336 22.3346 8.07197 22.3154C8.29057 22.3333 8.30975 21.9267 8.36984 21.7912H8.36856C8.71756 20.6586 9.66748 19.8135 10.8334 19.6001Z" fill="#09F7C7"/>
<path d="M11.6805 13.0693L3.68164 14.5421C3.73022 14.7466 3.82099 14.9396 3.94883 15.1071L6.04285 17.8122C6.62837 17.4198 6.76131 16.7972 6.97224 16.1797C7.21002 15.8013 7.62551 15.5712 8.07296 15.5712C8.5204 15.5712 8.93715 15.8013 9.17495 16.1797C9.2312 16.2935 9.3143 16.6246 9.3552 16.7499H9.35393C9.60961 17.5438 10.2948 18.1242 11.1207 18.2431C12.105 18.4923 12.1984 20.0865 11.306 20.5122H11.3048C11.1194 20.5877 10.9289 20.649 10.7359 20.6976C10.0673 20.897 9.54568 21.4212 9.34879 22.0885L16.7622 31.6639C16.7046 31.0349 12.05 14.5689 11.6805 13.0693Z" fill="white"/>
<path d="M28.7552 24.3223C27.7005 24.1241 26.8146 23.4108 26.394 22.4226C26.3224 22.2449 26.2316 21.9291 26.1779 21.7399C26.1473 21.6658 26.0744 21.6172 25.9939 21.6172C25.912 21.6172 25.8392 21.6658 25.8085 21.7399C25.6091 22.8573 24.8254 23.7815 23.7554 24.1587C23.6505 24.1945 23.3412 24.2903 23.2312 24.3236V24.3223C23.1507 24.3466 23.0957 24.4207 23.0957 24.5051C23.0957 24.5895 23.1507 24.6623 23.2312 24.6866C23.2887 24.6981 23.5547 24.7864 23.616 24.8043V24.8055C24.7525 25.1494 25.5988 26.1018 25.8085 27.269C25.8341 27.3508 25.9082 27.4058 25.9939 27.4058C26.0782 27.4058 26.1524 27.3496 26.1779 27.269L26.2904 26.8791H26.2917C26.5819 25.8768 27.3669 25.0932 28.3704 24.8055L28.7552 24.6879V24.6866C28.8358 24.6636 28.8908 24.5895 28.8908 24.5051C28.8908 24.4207 28.8357 24.3466 28.7552 24.3223Z" fill="#09F7C7"/>
<path d="M8.3021 24.8364C7.43279 24.6779 6.72454 24.0489 6.46502 23.2039L6.37809 22.9111H6.37681C6.34612 22.837 6.27325 22.7871 6.19272 22.7871C6.11218 22.7871 6.03803 22.837 6.00735 22.9111C5.82581 23.8866 5.06261 24.651 4.08717 24.8364C4.00663 24.8607 3.95166 24.9348 3.95166 25.0179C3.95166 25.1023 4.00663 25.1765 4.08717 25.2007L4.37993 25.2877C5.22622 25.5446 5.85521 26.2554 6.00736 27.126C6.03292 27.2066 6.10707 27.2628 6.19273 27.2641C6.27838 27.2654 6.35508 27.2091 6.37682 27.126C6.53534 26.2567 7.16561 25.5472 8.00935 25.2877L8.30211 25.2007C8.38265 25.1765 8.43762 25.1023 8.43762 25.0179C8.43762 24.9348 8.38263 24.8607 8.3021 24.8364Z" fill="#09F7C7"/>
<path d="M49.3239 6.71023C49.2784 6.25189 49.0833 5.89583 48.7386 5.64205C48.3939 5.38826 47.9261 5.26136 47.3352 5.26136C46.9337 5.26136 46.5947 5.31818 46.3182 5.43182C46.0417 5.54167 45.8295 5.69508 45.6818 5.89205C45.5379 6.08902 45.4659 6.3125 45.4659 6.5625C45.4583 6.77083 45.5019 6.95265 45.5966 7.10795C45.6951 7.26326 45.8295 7.39773 46 7.51136C46.1705 7.62121 46.3674 7.7178 46.5909 7.80114C46.8144 7.88068 47.053 7.94886 47.3068 8.00568L48.3523 8.25568C48.8598 8.36932 49.3258 8.52083 49.75 8.71023C50.1742 8.89962 50.5417 9.13258 50.8523 9.40909C51.1629 9.68561 51.4034 10.0114 51.5739 10.3864C51.7481 10.7614 51.8371 11.1913 51.8409 11.6761C51.8371 12.3883 51.6553 13.0057 51.2955 13.5284C50.9394 14.0473 50.4242 14.4508 49.75 14.7386C49.0795 15.0227 48.2708 15.1648 47.3239 15.1648C46.3845 15.1648 45.5663 15.0208 44.8693 14.733C44.1761 14.4451 43.6345 14.0189 43.2443 13.4545C42.858 12.8864 42.6553 12.1837 42.6364 11.3466H45.017C45.0436 11.7367 45.1553 12.0625 45.3523 12.3239C45.553 12.5814 45.8201 12.7765 46.1534 12.9091C46.4905 13.0379 46.8712 13.1023 47.2955 13.1023C47.7121 13.1023 48.0739 13.0417 48.3807 12.9205C48.6913 12.7992 48.9318 12.6307 49.1023 12.4148C49.2727 12.1989 49.358 11.9508 49.358 11.6705C49.358 11.4091 49.2803 11.1894 49.125 11.0114C48.9735 10.8333 48.75 10.6818 48.4545 10.5568C48.1629 10.4318 47.8049 10.3182 47.3807 10.2159L46.1136 9.89773C45.1326 9.65909 44.358 9.28598 43.7898 8.77841C43.2216 8.27083 42.9394 7.58712 42.9432 6.72727C42.9394 6.02273 43.1269 5.4072 43.5057 4.88068C43.8883 4.35417 44.4129 3.94318 45.0795 3.64773C45.7462 3.35227 46.5038 3.20455 47.3523 3.20455C48.2159 3.20455 48.9697 3.35227 49.6136 3.64773C50.2614 3.94318 50.7652 4.35417 51.125 4.88068C51.4848 5.4072 51.6705 6.01705 51.6818 6.71023H49.3239ZM57.3935 15.1705C56.5109 15.1705 55.7476 14.983 55.1037 14.608C54.4635 14.2292 53.9692 13.7027 53.6207 13.0284C53.2723 12.3504 53.098 11.5644 53.098 10.6705C53.098 9.76894 53.2723 8.98106 53.6207 8.30682C53.9692 7.62879 54.4635 7.10227 55.1037 6.72727C55.7476 6.34848 56.5109 6.15909 57.3935 6.15909C58.276 6.15909 59.0374 6.34848 59.6776 6.72727C60.3215 7.10227 60.8177 7.62879 61.1662 8.30682C61.5147 8.98106 61.6889 9.76894 61.6889 10.6705C61.6889 11.5644 61.5147 12.3504 61.1662 13.0284C60.8177 13.7027 60.3215 14.2292 59.6776 14.608C59.0374 14.983 58.276 15.1705 57.3935 15.1705ZM57.4048 13.2955C57.8063 13.2955 58.1416 13.1818 58.4105 12.9545C58.6795 12.7235 58.8821 12.4091 59.0185 12.0114C59.1586 11.6136 59.2287 11.161 59.2287 10.6534C59.2287 10.1458 59.1586 9.69318 59.0185 9.29545C58.8821 8.89773 58.6795 8.58333 58.4105 8.35227C58.1416 8.12121 57.8063 8.00568 57.4048 8.00568C56.9995 8.00568 56.6586 8.12121 56.3821 8.35227C56.1094 8.58333 55.9029 8.89773 55.7628 9.29545C55.6264 9.69318 55.5582 10.1458 55.5582 10.6534C55.5582 11.161 55.6264 11.6136 55.7628 12.0114C55.9029 12.4091 56.1094 12.7235 56.3821 12.9545C56.6586 13.1818 56.9995 13.2955 57.4048 13.2955ZM67.206 15.1705C66.312 15.1705 65.5431 14.9811 64.8991 14.6023C64.259 14.2197 63.7666 13.6894 63.4219 13.0114C63.081 12.3333 62.9105 11.553 62.9105 10.6705C62.9105 9.77652 63.0829 8.99242 63.4276 8.31818C63.776 7.64015 64.2704 7.11174 64.9105 6.73295C65.5507 6.35038 66.312 6.15909 67.1946 6.15909C67.956 6.15909 68.6226 6.29735 69.1946 6.57386C69.7666 6.85038 70.2192 7.23864 70.5526 7.73864C70.8859 8.23864 71.0696 8.82576 71.1037 9.5H68.8196C68.7552 9.06439 68.5848 8.71401 68.3082 8.44886C68.0355 8.17992 67.6776 8.04545 67.2344 8.04545C66.8594 8.04545 66.5317 8.14773 66.2514 8.35227C65.9749 8.55303 65.759 8.84659 65.6037 9.23295C65.4484 9.61932 65.3707 10.0871 65.3707 10.6364C65.3707 11.1932 65.4465 11.6667 65.598 12.0568C65.7533 12.447 65.9711 12.7443 66.2514 12.9489C66.5317 13.1534 66.8594 13.2557 67.2344 13.2557C67.5109 13.2557 67.759 13.1989 67.9787 13.0852C68.2022 12.9716 68.3859 12.8068 68.5298 12.5909C68.6776 12.3712 68.7741 12.108 68.8196 11.8011H71.1037C71.0658 12.4678 70.884 13.0549 70.5582 13.5625C70.2363 14.0663 69.7912 14.4602 69.223 14.7443C68.6548 15.0284 67.9825 15.1705 67.206 15.1705ZM72.6534 15V6.27273H75.0739V15H72.6534ZM73.8693 5.14773C73.5095 5.14773 73.2008 5.02841 72.9432 4.78977C72.6894 4.54735 72.5625 4.25758 72.5625 3.92045C72.5625 3.58712 72.6894 3.30114 72.9432 3.0625C73.2008 2.82008 73.5095 2.69886 73.8693 2.69886C74.2292 2.69886 74.536 2.82008 74.7898 3.0625C75.0473 3.30114 75.1761 3.58712 75.1761 3.92045C75.1761 4.25758 75.0473 4.54735 74.7898 4.78977C74.536 5.02841 74.2292 5.14773 73.8693 5.14773ZM79.5014 15.1648C78.9446 15.1648 78.4484 15.0682 78.0128 14.875C77.5772 14.678 77.2325 14.3883 76.9787 14.0057C76.7287 13.6193 76.6037 13.1383 76.6037 12.5625C76.6037 12.0777 76.6927 11.6705 76.8707 11.3409C77.0488 11.0114 77.2912 10.7462 77.598 10.5455C77.9048 10.3447 78.2533 10.1932 78.6435 10.0909C79.0374 9.98864 79.4503 9.91667 79.8821 9.875C80.3897 9.82197 80.7988 9.77273 81.1094 9.72727C81.42 9.67803 81.6454 9.60606 81.7855 9.51136C81.9257 9.41667 81.9957 9.27652 81.9957 9.09091V9.05682C81.9957 8.69697 81.8821 8.41856 81.6548 8.22159C81.4313 8.02462 81.1132 7.92614 80.7003 7.92614C80.2647 7.92614 79.9181 8.02273 79.6605 8.21591C79.4029 8.4053 79.2325 8.64394 79.1491 8.93182L76.9105 8.75C77.0241 8.2197 77.2476 7.76136 77.581 7.375C77.9143 6.98485 78.3442 6.68561 78.8707 6.47727C79.401 6.26515 80.0147 6.15909 80.7116 6.15909C81.1965 6.15909 81.6605 6.21591 82.1037 6.32955C82.5507 6.44318 82.9465 6.61932 83.2912 6.85795C83.6397 7.09659 83.9143 7.40341 84.1151 7.77841C84.3158 8.14962 84.4162 8.5947 84.4162 9.11364V15H82.1207V13.7898H82.0526C81.9124 14.0625 81.7249 14.303 81.4901 14.5114C81.2552 14.7159 80.973 14.8769 80.6435 14.9943C80.3139 15.108 79.9332 15.1648 79.5014 15.1648ZM80.1946 13.4943C80.5507 13.4943 80.8651 13.4242 81.1378 13.2841C81.4105 13.1402 81.6245 12.947 81.7798 12.7045C81.9351 12.4621 82.0128 12.1875 82.0128 11.8807V10.9545C81.937 11.0038 81.8329 11.0492 81.7003 11.0909C81.5715 11.1288 81.4257 11.1648 81.2628 11.1989C81.0999 11.2292 80.937 11.2576 80.7741 11.2841C80.6113 11.3068 80.4635 11.3277 80.331 11.3466C80.0469 11.3883 79.7988 11.4545 79.5866 11.5455C79.3745 11.6364 79.2098 11.7595 79.0923 11.9148C78.9749 12.0663 78.9162 12.2557 78.9162 12.483C78.9162 12.8125 79.0355 13.0644 79.2741 13.2386C79.5166 13.4091 79.8234 13.4943 80.1946 13.4943ZM88.7145 3.36364V15H86.294V3.36364H88.7145ZM104.669 7.4375H102.18C102.135 7.11553 102.042 6.82955 101.902 6.57955C101.762 6.32576 101.582 6.10985 101.362 5.93182C101.143 5.75379 100.889 5.61742 100.601 5.52273C100.317 5.42803 100.008 5.38068 99.6747 5.38068C99.0724 5.38068 98.5478 5.5303 98.1009 5.82955C97.6539 6.125 97.3073 6.55682 97.0611 7.125C96.8149 7.68939 96.6918 8.375 96.6918 9.18182C96.6918 10.0114 96.8149 10.7083 97.0611 11.2727C97.3111 11.8371 97.6596 12.2633 98.1065 12.5511C98.5535 12.839 99.0705 12.983 99.6577 12.983C99.9872 12.983 100.292 12.9394 100.572 12.8523C100.857 12.7652 101.108 12.6383 101.328 12.4716C101.548 12.3011 101.73 12.0947 101.874 11.8523C102.021 11.6098 102.124 11.3333 102.18 11.0227L104.669 11.0341C104.605 11.5682 104.444 12.0833 104.186 12.5795C103.932 13.072 103.589 13.5133 103.158 13.9034C102.73 14.2898 102.218 14.5966 101.624 14.8239C101.033 15.0473 100.364 15.1591 99.6179 15.1591C98.58 15.1591 97.652 14.9242 96.8338 14.4545C96.0194 13.9848 95.3755 13.3049 94.902 12.4148C94.4323 11.5246 94.1974 10.447 94.1974 9.18182C94.1974 7.91288 94.4361 6.83333 94.9134 5.94318C95.3906 5.05303 96.0384 4.375 96.8565 3.90909C97.6747 3.43939 98.5952 3.20455 99.6179 3.20455C100.292 3.20455 100.917 3.29924 101.493 3.48864C102.072 3.67803 102.586 3.95455 103.033 4.31818C103.48 4.67803 103.843 5.11932 104.124 5.64205C104.408 6.16477 104.589 6.76326 104.669 7.4375ZM108.876 15.1648C108.32 15.1648 107.823 15.0682 107.388 14.875C106.952 14.678 106.607 14.3883 106.354 14.0057C106.104 13.6193 105.979 13.1383 105.979 12.5625C105.979 12.0777 106.068 11.6705 106.246 11.3409C106.424 11.0114 106.666 10.7462 106.973 10.5455C107.28 10.3447 107.628 10.1932 108.018 10.0909C108.412 9.98864 108.825 9.91667 109.257 9.875C109.765 9.82197 110.174 9.77273 110.484 9.72727C110.795 9.67803 111.02 9.60606 111.161 9.51136C111.301 9.41667 111.371 9.27652 111.371 9.09091V9.05682C111.371 8.69697 111.257 8.41856 111.03 8.22159C110.806 8.02462 110.488 7.92614 110.075 7.92614C109.64 7.92614 109.293 8.02273 109.036 8.21591C108.778 8.4053 108.607 8.64394 108.524 8.93182L106.286 8.75C106.399 8.2197 106.623 7.76136 106.956 7.375C107.289 6.98485 107.719 6.68561 108.246 6.47727C108.776 6.26515 109.39 6.15909 110.087 6.15909C110.571 6.15909 111.036 6.21591 111.479 6.32955C111.926 6.44318 112.321 6.61932 112.666 6.85795C113.015 7.09659 113.289 7.40341 113.49 7.77841C113.691 8.14962 113.791 8.5947 113.791 9.11364V15H111.496V13.7898H111.428C111.287 14.0625 111.1 14.303 110.865 14.5114C110.63 14.7159 110.348 14.8769 110.018 14.9943C109.689 15.108 109.308 15.1648 108.876 15.1648ZM109.57 13.4943C109.926 13.4943 110.24 13.4242 110.513 13.2841C110.786 13.1402 111 12.947 111.155 12.7045C111.31 12.4621 111.388 12.1875 111.388 11.8807V10.9545C111.312 11.0038 111.208 11.0492 111.075 11.0909C110.946 11.1288 110.801 11.1648 110.638 11.1989C110.475 11.2292 110.312 11.2576 110.149 11.2841C109.986 11.3068 109.839 11.3277 109.706 11.3466C109.422 11.3883 109.174 11.4545 108.962 11.5455C108.75 11.6364 108.585 11.7595 108.467 11.9148C108.35 12.0663 108.291 12.2557 108.291 12.483C108.291 12.8125 108.411 13.0644 108.649 13.2386C108.892 13.4091 109.198 13.4943 109.57 13.4943ZM122.93 8.76136L120.714 8.89773C120.677 8.70833 120.595 8.53788 120.47 8.38636C120.345 8.23106 120.18 8.10795 119.976 8.01705C119.775 7.92235 119.535 7.875 119.254 7.875C118.879 7.875 118.563 7.95455 118.305 8.11364C118.048 8.26894 117.919 8.47727 117.919 8.73864C117.919 8.94697 118.002 9.12311 118.169 9.26705C118.336 9.41098 118.622 9.52652 119.027 9.61364L120.607 9.93182C121.455 10.1061 122.088 10.3864 122.504 10.7727C122.921 11.1591 123.129 11.6667 123.129 12.2955C123.129 12.8674 122.961 13.3693 122.624 13.8011C122.29 14.233 121.832 14.5701 121.249 14.8125C120.669 15.0511 120 15.1705 119.243 15.1705C118.088 15.1705 117.167 14.9299 116.482 14.4489C115.8 13.964 115.4 13.3049 115.283 12.4716L117.663 12.3466C117.735 12.6989 117.91 12.9678 118.186 13.1534C118.463 13.3352 118.817 13.4261 119.249 13.4261C119.673 13.4261 120.014 13.3447 120.271 13.1818C120.533 13.0152 120.665 12.8011 120.669 12.5398C120.665 12.3201 120.572 12.1402 120.391 12C120.209 11.8561 119.929 11.7462 119.55 11.6705L118.038 11.3693C117.186 11.1989 116.552 10.9034 116.135 10.483C115.722 10.0625 115.516 9.52652 115.516 8.875C115.516 8.31439 115.667 7.83144 115.97 7.42614C116.277 7.02083 116.707 6.70833 117.26 6.48864C117.817 6.26894 118.468 6.15909 119.214 6.15909C120.317 6.15909 121.184 6.39205 121.817 6.85795C122.453 7.32386 122.824 7.95833 122.93 8.76136ZM124.653 15V6.27273H127.074V15H124.653ZM125.869 5.14773C125.509 5.14773 125.201 5.02841 124.943 4.78977C124.689 4.54735 124.562 4.25758 124.562 3.92045C124.562 3.58712 124.689 3.30114 124.943 3.0625C125.201 2.82008 125.509 2.69886 125.869 2.69886C126.229 2.69886 126.536 2.82008 126.79 3.0625C127.047 3.30114 127.176 3.58712 127.176 3.92045C127.176 4.25758 127.047 4.54735 126.79 4.78977C126.536 5.02841 126.229 5.14773 125.869 5.14773ZM131.433 9.95455V15H129.013V6.27273H131.32V7.8125H131.422C131.615 7.30492 131.939 6.90341 132.393 6.60795C132.848 6.30871 133.399 6.15909 134.047 6.15909C134.653 6.15909 135.181 6.29167 135.632 6.55682C136.083 6.82197 136.433 7.20076 136.683 7.69318C136.933 8.18182 137.058 8.76515 137.058 9.44318V15H134.638V9.875C134.642 9.34091 134.505 8.92424 134.229 8.625C133.952 8.32197 133.571 8.17045 133.087 8.17045C132.761 8.17045 132.473 8.24053 132.223 8.38068C131.977 8.52083 131.784 8.72538 131.643 8.99432C131.507 9.25947 131.437 9.57955 131.433 9.95455ZM142.909 15.1705C142.027 15.1705 141.263 14.983 140.619 14.608C139.979 14.2292 139.485 13.7027 139.136 13.0284C138.788 12.3504 138.614 11.5644 138.614 10.6705C138.614 9.76894 138.788 8.98106 139.136 8.30682C139.485 7.62879 139.979 7.10227 140.619 6.72727C141.263 6.34848 142.027 6.15909 142.909 6.15909C143.792 6.15909 144.553 6.34848 145.193 6.72727C145.837 7.10227 146.333 7.62879 146.682 8.30682C147.03 8.98106 147.205 9.76894 147.205 10.6705C147.205 11.5644 147.03 12.3504 146.682 13.0284C146.333 13.7027 145.837 14.2292 145.193 14.608C144.553 14.983 143.792 15.1705 142.909 15.1705ZM142.92 13.2955C143.322 13.2955 143.657 13.1818 143.926 12.9545C144.195 12.7235 144.398 12.4091 144.534 12.0114C144.674 11.6136 144.744 11.161 144.744 10.6534C144.744 10.1458 144.674 9.69318 144.534 9.29545C144.398 8.89773 144.195 8.58333 143.926 8.35227C143.657 8.12121 143.322 8.00568 142.92 8.00568C142.515 8.00568 142.174 8.12121 141.898 8.35227C141.625 8.58333 141.419 8.89773 141.278 9.29545C141.142 9.69318 141.074 10.1458 141.074 10.6534C141.074 11.161 141.142 11.6136 141.278 12.0114C141.419 12.4091 141.625 12.7235 141.898 12.9545C142.174 13.1818 142.515 13.2955 142.92 13.2955ZM47.1364 34H43.0114V22.3636H47.1705C48.3409 22.3636 49.3485 22.5966 50.1932 23.0625C51.0379 23.5246 51.6875 24.1894 52.142 25.0568C52.6004 25.9242 52.8295 26.9621 52.8295 28.1705C52.8295 29.3826 52.6004 30.4242 52.142 31.2955C51.6875 32.1667 51.0341 32.8352 50.1818 33.3011C49.3333 33.767 48.3182 34 47.1364 34ZM45.4716 31.892H47.0341C47.7614 31.892 48.3731 31.7633 48.8693 31.5057C49.3693 31.2443 49.7443 30.8409 49.9943 30.2955C50.2481 29.7462 50.375 29.0379 50.375 28.1705C50.375 27.3106 50.2481 26.608 49.9943 26.0625C49.7443 25.517 49.3712 25.1155 48.875 24.858C48.3788 24.6004 47.767 24.4716 47.0398 24.4716H45.4716V31.892ZM58.5838 34.1705C57.6861 34.1705 56.9134 33.9886 56.2656 33.625C55.6217 33.2576 55.1255 32.7386 54.777 32.0682C54.4285 31.3939 54.2543 30.5966 54.2543 29.6761C54.2543 28.7784 54.4285 27.9905 54.777 27.3125C55.1255 26.6345 55.616 26.1061 56.2486 25.7273C56.8849 25.3485 57.6312 25.1591 58.4872 25.1591C59.063 25.1591 59.599 25.2519 60.0952 25.4375C60.5952 25.6193 61.0308 25.8939 61.402 26.2614C61.777 26.6288 62.0687 27.0909 62.277 27.6477C62.4853 28.2008 62.5895 28.8485 62.5895 29.5909V30.2557H55.2202V28.7557H60.3111C60.3111 28.4072 60.2353 28.0985 60.0838 27.8295C59.9323 27.5606 59.7221 27.3504 59.4531 27.1989C59.188 27.0436 58.8793 26.9659 58.527 26.9659C58.1596 26.9659 57.8338 27.0511 57.5497 27.2216C57.2694 27.3883 57.0497 27.6136 56.8906 27.8977C56.7315 28.178 56.6501 28.4905 56.6463 28.8352V30.2614C56.6463 30.6932 56.7259 31.0663 56.8849 31.3807C57.0478 31.6951 57.277 31.9375 57.5724 32.108C57.8679 32.2784 58.2183 32.3636 58.6236 32.3636C58.8925 32.3636 59.1387 32.3258 59.3622 32.25C59.5857 32.1742 59.777 32.0606 59.9361 31.9091C60.0952 31.7576 60.2164 31.572 60.2997 31.3523L62.5384 31.5C62.4247 32.0379 62.1918 32.5076 61.8395 32.9091C61.491 33.3068 61.0402 33.6174 60.4872 33.8409C59.938 34.0606 59.3035 34.1705 58.5838 34.1705ZM71.4304 27.7614L69.2145 27.8977C69.1766 27.7083 69.0952 27.5379 68.9702 27.3864C68.8452 27.2311 68.6804 27.108 68.4759 27.017C68.2751 26.9223 68.0346 26.875 67.7543 26.875C67.3793 26.875 67.063 26.9545 66.8054 27.1136C66.5478 27.2689 66.419 27.4773 66.419 27.7386C66.419 27.947 66.5024 28.1231 66.669 28.267C66.8357 28.411 67.1217 28.5265 67.527 28.6136L69.1065 28.9318C69.955 29.1061 70.5876 29.3864 71.0043 29.7727C71.4209 30.1591 71.6293 30.6667 71.6293 31.2955C71.6293 31.8674 71.4607 32.3693 71.1236 32.8011C70.7902 33.233 70.3319 33.5701 69.7486 33.8125C69.169 34.0511 68.5005 34.1705 67.7429 34.1705C66.5876 34.1705 65.6671 33.9299 64.9815 33.4489C64.2997 32.964 63.9001 32.3049 63.7827 31.4716L66.1634 31.3466C66.2353 31.6989 66.4096 31.9678 66.6861 32.1534C66.9626 32.3352 67.3168 32.4261 67.7486 32.4261C68.1728 32.4261 68.5137 32.3447 68.7713 32.1818C69.0327 32.0152 69.1652 31.8011 69.169 31.5398C69.1652 31.3201 69.0724 31.1402 68.8906 31C68.7088 30.8561 68.4285 30.7462 68.0497 30.6705L66.5384 30.3693C65.6861 30.1989 65.0516 29.9034 64.6349 29.483C64.2221 29.0625 64.0156 28.5265 64.0156 27.875C64.0156 27.3144 64.1671 26.8314 64.4702 26.4261C64.777 26.0208 65.2069 25.7083 65.7599 25.4886C66.3168 25.2689 66.9683 25.1591 67.7145 25.1591C68.8168 25.1591 69.6842 25.392 70.3168 25.858C70.9531 26.3239 71.3243 26.9583 71.4304 27.7614ZM77.7955 25.2727V27.0909H72.5398V25.2727H77.7955ZM73.733 23.1818H76.1534V31.3182C76.1534 31.5417 76.1875 31.7159 76.2557 31.8409C76.3239 31.9621 76.4186 32.0473 76.5398 32.0966C76.6648 32.1458 76.8087 32.1705 76.9716 32.1705C77.0852 32.1705 77.1989 32.161 77.3125 32.142C77.4261 32.1193 77.5133 32.1023 77.5739 32.0909L77.9545 33.892C77.8333 33.9299 77.6629 33.9735 77.4432 34.0227C77.2235 34.0758 76.9564 34.108 76.642 34.1193C76.0587 34.142 75.5473 34.0644 75.108 33.8864C74.6723 33.7083 74.3333 33.4318 74.0909 33.0568C73.8485 32.6818 73.7292 32.2083 73.733 31.6364V23.1818ZM79.3722 34V25.2727H81.7926V34H79.3722ZM80.5881 24.1477C80.2282 24.1477 79.9195 24.0284 79.6619 23.7898C79.4081 23.5473 79.2812 23.2576 79.2812 22.9205C79.2812 22.5871 79.4081 22.3011 79.6619 22.0625C79.9195 21.8201 80.2282 21.6989 80.5881 21.6989C80.9479 21.6989 81.2547 21.8201 81.5085 22.0625C81.7661 22.3011 81.8949 22.5871 81.8949 22.9205C81.8949 23.2576 81.7661 23.5473 81.5085 23.7898C81.2547 24.0284 80.9479 24.1477 80.5881 24.1477ZM86.152 28.9545V34H83.7315V25.2727H86.0384V26.8125H86.1406C86.3338 26.3049 86.6577 25.9034 87.1122 25.608C87.5668 25.3087 88.1179 25.1591 88.7656 25.1591C89.3717 25.1591 89.9001 25.2917 90.3509 25.5568C90.8016 25.822 91.152 26.2008 91.402 26.6932C91.652 27.1818 91.777 27.7652 91.777 28.4432V34H89.3565V28.875C89.3603 28.3409 89.224 27.9242 88.9474 27.625C88.6709 27.322 88.2902 27.1705 87.8054 27.1705C87.4796 27.1705 87.1918 27.2405 86.9418 27.3807C86.6955 27.5208 86.5024 27.7254 86.3622 27.9943C86.2259 28.2595 86.1558 28.5795 86.152 28.9545ZM96.1733 34.1648C95.6165 34.1648 95.1203 34.0682 94.6847 33.875C94.2491 33.678 93.9044 33.3883 93.6506 33.0057C93.4006 32.6193 93.2756 32.1383 93.2756 31.5625C93.2756 31.0777 93.3646 30.6705 93.5426 30.3409C93.7206 30.0114 93.9631 29.7462 94.2699 29.5455C94.5767 29.3447 94.9252 29.1932 95.3153 29.0909C95.7093 28.9886 96.1222 28.9167 96.554 28.875C97.0616 28.822 97.4706 28.7727 97.7812 28.7273C98.0919 28.678 98.3172 28.6061 98.4574 28.5114C98.5975 28.4167 98.6676 28.2765 98.6676 28.0909V28.0568C98.6676 27.697 98.554 27.4186 98.3267 27.2216C98.1032 27.0246 97.785 26.9261 97.3722 26.9261C96.9366 26.9261 96.59 27.0227 96.3324 27.2159C96.0748 27.4053 95.9044 27.6439 95.821 27.9318L93.5824 27.75C93.696 27.2197 93.9195 26.7614 94.2528 26.375C94.5862 25.9848 95.0161 25.6856 95.5426 25.4773C96.0729 25.2652 96.6866 25.1591 97.3835 25.1591C97.8684 25.1591 98.3324 25.2159 98.7756 25.3295C99.2225 25.4432 99.6184 25.6193 99.9631 25.858C100.312 26.0966 100.586 26.4034 100.787 26.7784C100.988 27.1496 101.088 27.5947 101.088 28.1136V34H98.7926V32.7898H98.7244C98.5843 33.0625 98.3968 33.303 98.1619 33.5114C97.9271 33.7159 97.6449 33.8769 97.3153 33.9943C96.9858 34.108 96.6051 34.1648 96.1733 34.1648ZM96.8665 32.4943C97.2225 32.4943 97.5369 32.4242 97.8097 32.2841C98.0824 32.1402 98.2964 31.947 98.4517 31.7045C98.607 31.4621 98.6847 31.1875 98.6847 30.8807V29.9545C98.6089 30.0038 98.5047 30.0492 98.3722 30.0909C98.2434 30.1288 98.0975 30.1648 97.9347 30.1989C97.7718 30.2292 97.6089 30.2576 97.446 30.2841C97.2831 30.3068 97.1354 30.3277 97.0028 30.3466C96.7188 30.3883 96.4706 30.4545 96.2585 30.5455C96.0464 30.6364 95.8816 30.7595 95.7642 30.9148C95.6468 31.0663 95.5881 31.2557 95.5881 31.483C95.5881 31.8125 95.7074 32.0644 95.946 32.2386C96.1884 32.4091 96.4953 32.4943 96.8665 32.4943ZM107.608 25.2727V27.0909H102.352V25.2727H107.608ZM103.545 23.1818H105.966V31.3182C105.966 31.5417 106 31.7159 106.068 31.8409C106.136 31.9621 106.231 32.0473 106.352 32.0966C106.477 32.1458 106.621 32.1705 106.784 32.1705C106.898 32.1705 107.011 32.161 107.125 32.142C107.239 32.1193 107.326 32.1023 107.386 32.0909L107.767 33.892C107.646 33.9299 107.475 33.9735 107.256 34.0227C107.036 34.0758 106.769 34.108 106.455 34.1193C105.871 34.142 105.36 34.0644 104.92 33.8864C104.485 33.7083 104.146 33.4318 103.903 33.0568C103.661 32.6818 103.542 32.2083 103.545 31.6364V23.1818ZM109.185 34V25.2727H111.605V34H109.185ZM110.401 24.1477C110.041 24.1477 109.732 24.0284 109.474 23.7898C109.221 23.5473 109.094 23.2576 109.094 22.9205C109.094 22.5871 109.221 22.3011 109.474 22.0625C109.732 21.8201 110.041 21.6989 110.401 21.6989C110.76 21.6989 111.067 21.8201 111.321 22.0625C111.579 22.3011 111.707 22.5871 111.707 22.9205C111.707 23.2576 111.579 23.5473 111.321 23.7898C111.067 24.0284 110.76 24.1477 110.401 24.1477ZM117.487 34.1705C116.605 34.1705 115.841 33.983 115.197 33.608C114.557 33.2292 114.063 32.7027 113.714 32.0284C113.366 31.3504 113.192 30.5644 113.192 29.6705C113.192 28.7689 113.366 27.9811 113.714 27.3068C114.063 26.6288 114.557 26.1023 115.197 25.7273C115.841 25.3485 116.605 25.1591 117.487 25.1591C118.37 25.1591 119.131 25.3485 119.771 25.7273C120.415 26.1023 120.911 26.6288 121.26 27.3068C121.608 27.9811 121.783 28.7689 121.783 29.6705C121.783 30.5644 121.608 31.3504 121.26 32.0284C120.911 32.7027 120.415 33.2292 119.771 33.608C119.131 33.983 118.37 34.1705 117.487 34.1705ZM117.499 32.2955C117.9 32.2955 118.235 32.1818 118.504 31.9545C118.773 31.7235 118.976 31.4091 119.112 31.0114C119.252 30.6136 119.322 30.161 119.322 29.6534C119.322 29.1458 119.252 28.6932 119.112 28.2955C118.976 27.8977 118.773 27.5833 118.504 27.3523C118.235 27.1212 117.9 27.0057 117.499 27.0057C117.093 27.0057 116.752 27.1212 116.476 27.3523C116.203 27.5833 115.997 27.8977 115.857 28.2955C115.72 28.6932 115.652 29.1458 115.652 29.6534C115.652 30.161 115.72 30.6136 115.857 31.0114C115.997 31.4091 116.203 31.7235 116.476 31.9545C116.752 32.1818 117.093 32.2955 117.499 32.2955ZM125.777 28.9545V34H123.357V25.2727H125.663V26.8125H125.766C125.959 26.3049 126.283 25.9034 126.737 25.608C127.192 25.3087 127.743 25.1591 128.391 25.1591C128.997 25.1591 129.525 25.2917 129.976 25.5568C130.427 25.822 130.777 26.2008 131.027 26.6932C131.277 27.1818 131.402 27.7652 131.402 28.4432V34H128.982V28.875C128.985 28.3409 128.849 27.9242 128.572 27.625C128.296 27.322 127.915 27.1705 127.43 27.1705C127.105 27.1705 126.817 27.2405 126.567 27.3807C126.321 27.5208 126.127 27.7254 125.987 27.9943C125.851 28.2595 125.781 28.5795 125.777 28.9545Z" fill="white"/>
</svg>
