<svg width="159" height="32" viewBox="0 0 159 32" fill="none" xmlns="http://www.w3.org/2000/svg">
<path d="M24.0117 16.4241C25.4986 14.4866 25.83 12.9561 25.5357 11.6721C25.5843 11.6732 25.63 11.6777 25.6796 11.6777C25.8899 11.6777 26.1086 11.6678 26.3355 11.6483C28.386 11.4687 31.348 10.3825 31.194 8.62234C31.0955 7.48613 29.8321 6.94601 28.7775 6.69171C28.8316 6.58302 28.8829 6.47456 28.9297 6.36687C29.6043 4.81687 29.2602 4.00593 28.8529 3.59874C28.1365 2.88228 26.9324 3.09394 25.7607 3.67767C25.5069 2.62238 24.9669 1.35615 23.8299 1.25765C23.2582 1.20749 22.414 1.46499 21.6604 2.97734C21.2113 3.87874 20.8988 5.02265 20.803 6.11656C20.7784 6.40038 20.7747 6.66786 20.7811 6.92704C19.7836 6.70193 18.6388 6.85392 17.2745 7.61927C17.2014 7.64665 17.1329 7.68679 17.0688 7.73634C16.2173 8.24458 15.2815 8.98892 14.2438 10.0266C13.3523 10.9182 12.431 11.972 11.5381 13.117C10.9638 12.2514 10.1151 11.6291 9.12597 11.3663C9.57614 10.178 10.5568 9.3787 12.1165 8.91312C12.5397 8.78671 12.7805 8.34109 12.6541 7.91765C12.5277 7.49421 12.0822 7.25374 11.6586 7.37999C11.0607 7.55849 10.5228 7.78529 10.0434 8.05663C9.97312 7.37874 9.72581 6.65023 9.11802 6.04249C7.65895 4.58374 4.75661 4.55812 4.43474 4.56015C3.99661 4.56265 3.64208 4.91734 3.63942 5.35546C3.63755 5.68124 3.66286 8.58015 5.12177 10.0387C5.86095 10.7781 6.77854 10.9839 7.56679 10.9866C7.53558 11.0787 7.50983 11.1743 7.48304 11.2693C5.67622 11.5186 4.22983 12.9268 3.87239 14.8703C3.6888 15.872 3.12974 16.9559 2.53802 18.1033C1.68364 19.7602 0.800049 21.4733 0.800049 23.3473C0.800049 27.1283 3.6488 29.5714 8.0577 29.5714C9.57792 29.5714 10.9659 29.2614 12.1067 28.6755C14.4041 29.8178 16.95 30.4287 19.5529 30.4287C23.5855 30.4287 27.4818 28.9722 30.5241 26.3273C30.9318 25.973 31.171 25.4783 31.1977 24.9345C31.2244 24.3883 31.0243 23.8472 30.6485 23.4498L24.0117 16.4241ZM27.5656 22.5173C25.3692 24.5191 22.5533 25.6152 19.5529 25.6152C16.5523 25.6152 13.7364 24.5191 11.54 22.5173L18.8604 14.7666C19.2241 14.3816 19.8816 14.3816 20.2454 14.7666L27.5656 22.5173ZM29.5822 8.76343C29.378 9.11562 28.0221 9.89437 26.1971 10.0544C26.0381 10.0681 25.8867 10.0743 25.7403 10.0759C26.1656 9.83855 26.6125 9.50505 27.0768 9.04077C27.3554 8.76214 27.6203 8.45722 27.865 8.13882C28.9133 8.29927 29.4476 8.6132 29.5822 8.76343ZM27.6291 4.73609C27.6593 4.73609 27.6861 4.73828 27.7093 4.74234C27.7805 5.14234 27.2427 6.61218 25.9455 7.90921C25.0211 8.83345 24.1201 9.17505 23.698 8.76536C23.696 8.76337 23.6941 8.76136 23.6921 8.75937C23.6815 8.74878 23.6707 8.73855 23.6601 8.728C23.5843 8.6437 23.4563 8.45324 23.5369 8.06999C23.6327 7.61406 23.9899 7.05859 24.5422 6.50609C25.7643 5.28421 27.1393 4.73609 27.6291 4.73609ZM22.3969 6.25562C22.5569 4.42937 23.3357 3.07328 23.688 2.86921C23.8384 3.00386 24.1528 3.53927 24.3131 4.58988C23.9816 4.84378 23.6748 5.11101 23.411 5.37484C22.9482 5.83761 22.6133 6.28361 22.376 6.70759C22.3774 6.56738 22.3827 6.41939 22.3969 6.25562ZM15.3752 11.1578C16.1484 10.3846 16.832 9.80716 17.4427 9.38546L18.0441 9.98687C18.2002 10.1431 18.405 10.2212 18.6097 10.2212C18.8144 10.2212 19.0193 10.1431 19.1754 9.98687C19.4879 9.67452 19.4879 9.16796 19.1754 8.85562L18.9223 8.60259C20.6574 8.00742 21.6399 8.97007 22.5389 9.8689C22.5461 9.87628 22.5525 9.88476 22.5597 9.89202C22.567 9.89925 22.5753 9.90572 22.5826 9.91286C23.9597 11.2968 24.8454 12.6011 22.8984 15.2454L21.4085 13.6678C20.9285 13.1595 20.2521 12.8681 19.5529 12.8681C18.8536 12.8681 18.1772 13.1595 17.6972 13.6678L16.8466 14.5684L16.1494 13.8712C15.8372 13.5587 15.3304 13.5587 15.0182 13.8712C14.7057 14.1836 14.7057 14.6902 15.0182 15.0025L15.7477 15.732L13.5497 18.0592C12.9671 16.9288 12.4204 15.8603 12.2397 14.8698C12.2382 14.8617 12.2358 14.854 12.2343 14.8458C13.2599 13.4636 14.3404 12.1929 15.3752 11.1578ZM6.25302 8.90734C5.65067 8.30499 5.38942 7.10156 5.29099 6.21171C6.18099 6.31031 7.38442 6.57156 7.98677 7.1739C8.6063 7.79343 8.49411 8.77187 8.37427 9.29452C7.85114 9.41452 6.87161 9.52609 6.25302 8.90734ZM8.0577 27.9714C5.32255 27.9714 2.40005 26.7567 2.40005 23.3473C2.40005 21.8616 3.19302 20.3237 3.96005 18.8367C4.57927 17.6359 5.21974 16.3942 5.44614 15.1592C5.64278 14.0899 6.33792 13.274 7.24187 12.9637C7.23642 13.2242 7.2388 13.4893 7.25849 13.7648C7.28864 14.1861 7.63974 14.5078 8.05567 14.5078C8.07474 14.5078 8.09411 14.5072 8.11349 14.5058C8.55411 14.4744 8.88583 14.0916 8.85442 13.6508C8.83708 13.4078 8.83466 13.1771 8.84017 12.9528C9.75856 13.2545 10.467 14.0769 10.6658 15.1581C10.8913 16.3936 11.5304 17.6337 12.1483 18.8331C12.227 18.9858 12.3043 19.1409 12.3827 19.2948L8.45786 23.4491C8.07942 23.8492 7.88645 24.3723 7.91411 24.9223C7.94177 25.4727 8.19849 25.9964 8.61833 26.3594C9.16593 26.8326 9.74192 27.266 10.3404 27.661C9.65073 27.8638 8.88237 27.9714 8.0577 27.9714ZM29.4744 25.1198C26.7232 27.5116 23.1997 28.8287 19.5529 28.8287C15.9222 28.8287 12.4105 27.5219 9.66458 25.1487C9.57224 25.0689 9.51802 24.96 9.51208 24.8419C9.50817 24.7644 9.5238 24.6506 9.62052 24.5483L10.439 23.6827C12.9335 25.9669 16.1386 27.2152 19.5529 27.2152C22.9669 27.2152 26.1721 25.9669 28.6668 23.6827L29.4857 24.5489C29.5922 24.6616 29.6029 24.7898 29.5996 24.8562C29.596 24.93 29.5713 25.0356 29.4744 25.1198Z" fill="#FFFFFF"/>
<path d="M15.267 20.1943C14.9 19.9481 14.4031 20.0462 14.157 20.4131L13.7319 21.0475C13.4859 21.4145 13.5842 21.9115 13.9514 22.1573C14.0881 22.2489 14.2428 22.2928 14.3958 22.2928C14.6538 22.2928 14.907 22.1682 15.0613 21.9378L15.4858 21.3043C15.7319 20.9375 15.6339 20.4404 15.267 20.1943Z" fill="#FFFFFF"/>
<path d="M18.0664 21.354C17.6344 21.2689 17.2123 21.5506 17.1269 21.984L16.9794 22.733C16.8939 23.1664 17.1759 23.587 17.6095 23.6725C17.6617 23.6828 17.7138 23.6878 17.7652 23.6878C18.1395 23.6878 18.4739 23.4236 18.5491 23.0425L18.6966 22.2936C18.782 21.8601 18.5 21.4395 18.0664 21.354Z" fill="#FFFFFF"/>
<path d="M21.0452 21.3537C20.6116 21.439 20.3294 21.8595 20.4146 22.2931L20.5622 23.0423C20.6374 23.4236 20.9718 23.6876 21.3461 23.6876C21.3975 23.6876 21.4496 23.6826 21.5018 23.6723C21.9354 23.5868 22.2174 23.1662 22.1319 22.7328L21.9846 21.9843C21.8994 21.5508 21.478 21.2697 21.0452 21.3537Z" fill="#FFFFFF"/>
<path d="M24.0503 21.9382C24.2047 22.1685 24.4578 22.2929 24.7157 22.2929C24.8688 22.2929 25.0236 22.249 25.1603 22.1573C25.5274 21.9112 25.6253 21.4143 25.3794 21.0473L24.9544 20.4132C24.7083 20.0463 24.2111 19.9479 23.8444 20.1945C23.4775 20.4406 23.3796 20.9376 23.6257 21.3045L24.0503 21.9382Z" fill="#FFFFFF"/>
<path d="M18.3662 17.1554C17.9484 17.0146 17.4935 17.2382 17.352 17.6568L17.0802 18.4601C16.9387 18.8787 17.1632 19.3327 17.5816 19.4743C17.6666 19.503 17.753 19.5166 17.8382 19.5166C18.1718 19.5166 18.483 19.3063 18.5959 18.9729L18.8676 18.1696C19.0091 17.751 18.7846 17.2969 18.3662 17.1554Z" fill="#FFFFFF"/>
<path d="M20.2438 18.1698L20.5155 18.973C20.6283 19.3065 20.9396 19.5168 21.2732 19.5168C21.3582 19.5168 21.4447 19.5032 21.5297 19.4744C21.9482 19.3329 22.1727 18.8788 22.0312 18.4602L21.7594 17.6569C21.618 17.2387 21.1637 17.0143 20.7452 17.1555C20.3268 17.2971 20.1022 17.7512 20.2438 18.1698Z" fill="#FFFFFF"/>
<path d="M54.6307 15.7273C54.6307 17.3134 54.33 18.6629 53.7287 19.7756C53.1321 20.8883 52.3177 21.7382 51.2855 22.3253C50.258 22.9077 49.1027 23.1989 47.8196 23.1989C46.527 23.1989 45.367 22.9053 44.3395 22.3182C43.312 21.7311 42.5 20.8812 41.9034 19.7685C41.3068 18.6558 41.0085 17.3087 41.0085 15.7273C41.0085 14.1411 41.3068 12.7917 41.9034 11.679C42.5 10.5663 43.312 9.71875 44.3395 9.13636C45.367 8.54924 46.527 8.25568 47.8196 8.25568C49.1027 8.25568 50.258 8.54924 51.2855 9.13636C52.3177 9.71875 53.1321 10.5663 53.7287 11.679C54.33 12.7917 54.6307 14.1411 54.6307 15.7273ZM51.5128 15.7273C51.5128 14.6998 51.3589 13.8333 51.0511 13.1278C50.7481 12.4223 50.3196 11.8873 49.7656 11.5227C49.2116 11.1581 48.563 10.9759 47.8196 10.9759C47.0762 10.9759 46.4276 11.1581 45.8736 11.5227C45.3196 11.8873 44.8887 12.4223 44.581 13.1278C44.2779 13.8333 44.1264 14.6998 44.1264 15.7273C44.1264 16.7547 44.2779 17.6212 44.581 18.3267C44.8887 19.0322 45.3196 19.5672 45.8736 19.9318C46.4276 20.2964 47.0762 20.4787 47.8196 20.4787C48.563 20.4787 49.2116 20.2964 49.7656 19.9318C50.3196 19.5672 50.7481 19.0322 51.0511 18.3267C51.3589 17.6212 51.5128 16.7547 51.5128 15.7273ZM59.8775 16.6932V23H56.8519V12.0909H59.7354V14.0156H59.8633C60.1048 13.3812 60.5096 12.8793 61.0778 12.5099C61.646 12.1359 62.3349 11.9489 63.1445 11.9489C63.9021 11.9489 64.5626 12.1146 65.1261 12.446C65.6895 12.7775 66.1275 13.2509 66.44 13.8665C66.7525 14.4773 66.9087 15.2064 66.9087 16.054V23H63.8832V16.5938C63.8879 15.9261 63.7174 15.4053 63.3718 15.0312C63.0262 14.6525 62.5503 14.4631 61.9442 14.4631C61.5371 14.4631 61.1772 14.5507 60.8647 14.7259C60.5569 14.901 60.3155 15.1567 60.1403 15.4929C59.9698 15.8243 59.8822 16.2244 59.8775 16.6932ZM72.3189 16.6932V23H69.2933V12.0909H72.1768V14.0156H72.3047C72.5462 13.3812 72.951 12.8793 73.5192 12.5099C74.0874 12.1359 74.7763 11.9489 75.5859 11.9489C76.3435 11.9489 77.004 12.1146 77.5675 12.446C78.1309 12.7775 78.5689 13.2509 78.8814 13.8665C79.1939 14.4773 79.3501 15.2064 79.3501 16.054V23H76.3246V16.5938C76.3293 15.9261 76.1589 15.4053 75.8132 15.0312C75.4676 14.6525 74.9917 14.4631 74.3857 14.4631C73.9785 14.4631 73.6186 14.5507 73.3061 14.7259C72.9983 14.901 72.7569 15.1567 72.5817 15.4929C72.4112 15.8243 72.3236 16.2244 72.3189 16.6932ZM81.7347 23V12.0909H84.7603V23H81.7347ZM83.2546 10.6847C82.8048 10.6847 82.4189 10.5355 82.0969 10.2372C81.7797 9.93419 81.6211 9.57197 81.6211 9.15057C81.6211 8.7339 81.7797 8.37642 82.0969 8.07812C82.4189 7.77509 82.8048 7.62358 83.2546 7.62358C83.7044 7.62358 84.0879 7.77509 84.4052 8.07812C84.7272 8.37642 84.8881 8.7339 84.8881 9.15057C84.8881 9.57197 84.7272 9.93419 84.4052 10.2372C84.0879 10.5355 83.7044 10.6847 83.2546 10.6847ZM104.703 13.5469H101.593C101.536 13.1444 101.42 12.7869 101.245 12.4744C101.069 12.1572 100.845 11.8873 100.57 11.6648C100.295 11.4422 99.9781 11.2718 99.6183 11.1534C99.2631 11.035 98.8772 10.9759 98.4606 10.9759C97.7077 10.9759 97.052 11.1629 96.4933 11.5369C95.9345 11.9062 95.5013 12.446 95.1935 13.1562C94.8858 13.8617 94.7319 14.7187 94.7319 15.7273C94.7319 16.7642 94.8858 17.6354 95.1935 18.3409C95.506 19.0464 95.9416 19.5791 96.5004 19.9389C97.0591 20.2988 97.7054 20.4787 98.4393 20.4787C98.8512 20.4787 99.2324 20.4242 99.5827 20.3153C99.9379 20.2064 100.253 20.0478 100.527 19.8395C100.802 19.6264 101.029 19.3684 101.209 19.0653C101.394 18.7623 101.522 18.4167 101.593 18.0284L104.703 18.0426C104.623 18.7102 104.422 19.3542 104.1 19.9744C103.783 20.59 103.354 21.1416 102.814 21.6293C102.279 22.1122 101.64 22.4957 100.897 22.7798C100.158 23.0592 99.3223 23.1989 98.3896 23.1989C97.0922 23.1989 95.9322 22.9053 94.9094 22.3182C93.8915 21.7311 93.0865 20.8812 92.4947 19.7685C91.9076 18.6558 91.614 17.3087 91.614 15.7273C91.614 14.1411 91.9123 12.7917 92.5089 11.679C93.1055 10.5663 93.9151 9.71875 94.9379 9.13636C95.9606 8.54924 97.1112 8.25568 98.3896 8.25568C99.2324 8.25568 100.014 8.37405 100.733 8.6108C101.458 8.84754 102.099 9.19318 102.658 9.64773C103.217 10.0975 103.671 10.6491 104.022 11.3026C104.377 11.956 104.604 12.7041 104.703 13.5469ZM109.963 23.206C109.267 23.206 108.646 23.0852 108.102 22.8438C107.557 22.5975 107.127 22.2353 106.809 21.7571C106.497 21.2741 106.341 20.6728 106.341 19.9531C106.341 19.3471 106.452 18.8381 106.674 18.4261C106.897 18.0142 107.2 17.6828 107.583 17.4318C107.967 17.1809 108.403 16.9915 108.89 16.8636C109.383 16.7358 109.899 16.6458 110.439 16.5938C111.073 16.5275 111.584 16.4659 111.973 16.4091C112.361 16.3475 112.643 16.2576 112.818 16.1392C112.993 16.0208 113.081 15.8456 113.081 15.6136V15.571C113.081 15.1212 112.939 14.7732 112.654 14.527C112.375 14.2808 111.977 14.1577 111.461 14.1577C110.917 14.1577 110.484 14.2784 110.162 14.5199C109.84 14.7566 109.627 15.0549 109.522 15.4148L106.724 15.1875C106.866 14.5246 107.145 13.9517 107.562 13.4688C107.979 12.9811 108.516 12.607 109.174 12.3466C109.837 12.0814 110.604 11.9489 111.475 11.9489C112.082 11.9489 112.662 12.0199 113.216 12.1619C113.774 12.304 114.269 12.5241 114.7 12.8224C115.136 13.1207 115.479 13.5043 115.73 13.973C115.981 14.437 116.106 14.9934 116.106 15.642V23H113.237V21.4872H113.152C112.976 21.8281 112.742 22.1288 112.449 22.3892C112.155 22.6449 111.802 22.8461 111.39 22.9929C110.978 23.1349 110.502 23.206 109.963 23.206ZM110.829 21.1179C111.274 21.1179 111.667 21.0303 112.008 20.8551C112.349 20.6752 112.617 20.4337 112.811 20.1307C113.005 19.8277 113.102 19.4844 113.102 19.1009V17.9432C113.007 18.0047 112.877 18.0616 112.711 18.1136C112.55 18.161 112.368 18.206 112.164 18.2486C111.961 18.2865 111.757 18.322 111.554 18.3551C111.35 18.3835 111.165 18.4096 111 18.4332C110.645 18.4853 110.334 18.5682 110.069 18.6818C109.804 18.7955 109.598 18.9493 109.451 19.1435C109.305 19.3329 109.231 19.5696 109.231 19.8537C109.231 20.2656 109.38 20.5805 109.679 20.7983C109.982 21.0114 110.365 21.1179 110.829 21.1179ZM127.53 15.2017L124.76 15.3722C124.713 15.1354 124.611 14.9223 124.455 14.733C124.299 14.5388 124.093 14.3849 123.837 14.2713C123.586 14.1529 123.285 14.0938 122.935 14.0938C122.466 14.0938 122.071 14.1932 121.749 14.392C121.427 14.5862 121.266 14.8466 121.266 15.1733C121.266 15.4337 121.37 15.6539 121.578 15.8338C121.787 16.0137 122.144 16.1581 122.651 16.267L124.625 16.6648C125.686 16.8826 126.477 17.233 126.998 17.7159C127.518 18.1989 127.779 18.8333 127.779 19.6193C127.779 20.3343 127.568 20.9616 127.147 21.5014C126.73 22.0412 126.157 22.4626 125.428 22.7656C124.703 23.0639 123.868 23.2131 122.921 23.2131C121.477 23.2131 120.326 22.9124 119.469 22.3111C118.617 21.705 118.117 20.8812 117.971 19.8395L120.946 19.6832C121.036 20.1236 121.254 20.4598 121.6 20.6918C121.945 20.919 122.388 21.0327 122.928 21.0327C123.458 21.0327 123.884 20.9309 124.206 20.7273C124.533 20.5189 124.699 20.2514 124.703 19.9247C124.699 19.6501 124.583 19.4252 124.355 19.25C124.128 19.0701 123.778 18.9328 123.304 18.8381L121.415 18.4616C120.35 18.2486 119.557 17.8793 119.036 17.3537C118.52 16.8281 118.262 16.1581 118.262 15.3438C118.262 14.643 118.451 14.0393 118.83 13.5327C119.213 13.026 119.751 12.6354 120.442 12.3608C121.138 12.0862 121.953 11.9489 122.885 11.9489C124.263 11.9489 125.347 12.2401 126.138 12.8224C126.934 13.4048 127.398 14.1979 127.53 15.2017ZM129.684 23V12.0909H132.71V23H129.684ZM131.204 10.6847C130.754 10.6847 130.368 10.5355 130.046 10.2372C129.729 9.93419 129.57 9.57197 129.57 9.15057C129.57 8.7339 129.729 8.37642 130.046 8.07812C130.368 7.77509 130.754 7.62358 131.204 7.62358C131.654 7.62358 132.037 7.77509 132.354 8.07812C132.676 8.37642 132.837 8.7339 132.837 9.15057C132.837 9.57197 132.676 9.93419 132.354 10.2372C132.037 10.5355 131.654 10.6847 131.204 10.6847ZM138.159 16.6932V23H135.133V12.0909H138.017V14.0156H138.145C138.386 13.3812 138.791 12.8793 139.359 12.5099C139.927 12.1359 140.616 11.9489 141.426 11.9489C142.183 11.9489 142.844 12.1146 143.407 12.446C143.971 12.7775 144.409 13.2509 144.721 13.8665C145.034 14.4773 145.19 15.2064 145.19 16.054V23H142.164V16.5938C142.169 15.9261 141.999 15.4053 141.653 15.0312C141.307 14.6525 140.832 14.4631 140.225 14.4631C139.818 14.4631 139.458 14.5507 139.146 14.7259C138.838 14.901 138.597 15.1567 138.422 15.4929C138.251 15.8243 138.163 16.2244 138.159 16.6932ZM152.504 23.2131C151.4 23.2131 150.446 22.9787 149.641 22.5099C148.841 22.0365 148.223 21.3783 147.788 20.5355C147.352 19.688 147.134 18.7055 147.134 17.5881C147.134 16.4612 147.352 15.4763 147.788 14.6335C148.223 13.786 148.841 13.1278 149.641 12.6591C150.446 12.1856 151.4 11.9489 152.504 11.9489C153.607 11.9489 154.558 12.1856 155.359 12.6591C156.164 13.1278 156.784 13.786 157.219 14.6335C157.655 15.4763 157.873 16.4612 157.873 17.5881C157.873 18.7055 157.655 19.688 157.219 20.5355C156.784 21.3783 156.164 22.0365 155.359 22.5099C154.558 22.9787 153.607 23.2131 152.504 23.2131ZM152.518 20.8693C153.02 20.8693 153.439 20.7273 153.775 20.4432C154.111 20.1544 154.364 19.7614 154.535 19.2642C154.71 18.767 154.798 18.2012 154.798 17.5668C154.798 16.9323 154.71 16.3665 154.535 15.8693C154.364 15.3722 154.111 14.9792 153.775 14.6903C153.439 14.4015 153.02 14.2571 152.518 14.2571C152.011 14.2571 151.585 14.4015 151.239 14.6903C150.898 14.9792 150.64 15.3722 150.465 15.8693C150.295 16.3665 150.21 16.9323 150.21 17.5668C150.21 18.2012 150.295 18.767 150.465 19.2642C150.64 19.7614 150.898 20.1544 151.239 20.4432C151.585 20.7273 152.011 20.8693 152.518 20.8693Z" fill="#FFFFFF"/>
</svg>
