<svg width="157" height="32" viewBox="0 0 157 32" fill="none" xmlns="http://www.w3.org/2000/svg">
<path fill-rule="evenodd" clip-rule="evenodd" d="M5.57758 4H13.7026C13.9937 4 14.2303 4.25215 14.2303 4.56238V13.2208C14.2303 13.531 13.9937 13.7832 13.7026 13.7832H5.57758C5.28646 13.7832 5.04984 13.531 5.04984 13.2208V4.56238C5.04984 4.25215 5.28646 4 5.57758 4ZM21.7828 17.2354C23.1777 17.2354 24.4401 17.8382 25.3541 18.8123C26.2682 19.7863 26.8332 21.1324 26.8332 22.6181C26.8332 24.1045 26.2675 25.4498 25.3541 26.4239C24.4401 27.3979 23.177 28 21.7828 28C20.3879 28 19.1255 27.3972 18.2115 26.4239C17.2974 25.4498 16.7317 24.1038 16.7317 22.6181C16.7317 21.1316 17.2974 19.7863 18.2115 18.8123C19.1255 17.8382 20.3886 17.2354 21.7828 17.2354ZM13.3791 17.8382C13.5846 17.6184 13.9192 17.6184 14.1255 17.8382C14.3317 18.058 14.3317 18.4138 14.1255 18.6336L10.3865 22.6181L14.1255 26.6025C14.3317 26.8223 14.3317 27.1781 14.1255 27.3979C13.9192 27.617 13.5853 27.617 13.3791 27.3979L9.64009 23.4135L5.90111 27.3979C5.69485 27.617 5.36096 27.617 5.1547 27.3979C4.94843 27.1781 4.94843 26.8223 5.1547 26.6025L8.89368 22.6181L5.1547 18.6336C4.94843 18.4138 4.94843 18.058 5.1547 17.8382C5.36096 17.6184 5.69485 17.6184 5.90111 17.8382L9.64009 21.8226L13.3791 17.8382ZM22.2415 4.28964L24.5829 8.61078L24.5836 8.61004L26.9291 12.9393C27.0746 13.2076 26.9891 13.5509 26.7373 13.706C26.6538 13.7575 26.5628 13.7817 26.4731 13.7817V13.7832H17.0911C16.8 13.7832 16.5634 13.531 16.5634 13.2208C16.5634 13.1039 16.5965 12.9959 16.6538 12.9062L18.9813 8.61004L18.9979 8.58137L21.3268 4.28376C21.471 4.01544 21.7925 3.92281 22.0443 4.07719C22.1298 4.12938 22.196 4.20363 22.2409 4.28964H22.2415Z" fill="white"/>
<path d="M47.2012 12.0977C46.9733 11.1146 46.4167 10.4277 45.5312 10.0371C45.0365 9.82227 44.4863 9.71484 43.8809 9.71484C42.722 9.71484 41.7682 10.1543 41.0195 11.0332C40.2773 11.9056 39.9062 13.2207 39.9062 14.9785C39.9062 16.7493 40.3099 18.0026 41.1172 18.7383C41.9245 19.474 42.8424 19.8418 43.8711 19.8418C44.8802 19.8418 45.707 19.5521 46.3516 18.9727C46.9961 18.3867 47.3932 17.6217 47.543 16.6777H44.2129V14.2754H50.209V22H48.2168L47.9141 20.2031C47.3346 20.8867 46.8138 21.3685 46.3516 21.6484C45.5573 22.1367 44.5807 22.3809 43.4219 22.3809C41.5143 22.3809 39.9518 21.7201 38.7344 20.3984C37.4648 19.0703 36.8301 17.2539 36.8301 14.9492C36.8301 12.6185 37.4714 10.75 38.7539 9.34375C40.0365 7.9375 41.7324 7.23438 43.8418 7.23438C45.6712 7.23438 47.1393 7.69987 48.2461 8.63086C49.3594 9.55534 49.9974 10.7109 50.1602 12.0977H47.2012ZM58.7344 16.8242C58.5586 16.9349 58.3796 17.026 58.1973 17.0977C58.0215 17.1628 57.7773 17.2246 57.4648 17.2832L56.8398 17.4004C56.2539 17.5046 55.834 17.6315 55.5801 17.7812C55.1504 18.0352 54.9355 18.429 54.9355 18.9629C54.9355 19.4382 55.0658 19.7832 55.3262 19.998C55.5931 20.2064 55.9154 20.3105 56.293 20.3105C56.8919 20.3105 57.4421 20.1348 57.9434 19.7832C58.4512 19.4316 58.7148 18.7904 58.7344 17.8594V16.8242ZM57.0449 15.5254C57.5592 15.4603 57.9271 15.3789 58.1484 15.2812C58.5456 15.112 58.7441 14.8483 58.7441 14.4902C58.7441 14.054 58.5911 13.7546 58.2852 13.5918C57.9857 13.4225 57.543 13.3379 56.957 13.3379C56.2995 13.3379 55.834 13.5007 55.5605 13.8262C55.3652 14.0671 55.235 14.3926 55.1699 14.8027H52.4844C52.543 13.8717 52.8034 13.1068 53.2656 12.5078C54.0013 11.5703 55.2643 11.1016 57.0547 11.1016C58.2201 11.1016 59.2552 11.3327 60.1602 11.7949C61.0651 12.2572 61.5176 13.1296 61.5176 14.4121V19.2949C61.5176 19.6335 61.5241 20.0436 61.5371 20.5254C61.5566 20.89 61.612 21.1374 61.7031 21.2676C61.7943 21.3978 61.931 21.5052 62.1133 21.5898V22H59.0859C59.0013 21.7852 58.9427 21.5833 58.9102 21.3945C58.8776 21.2057 58.8516 20.9909 58.832 20.75C58.4479 21.1667 58.0052 21.5215 57.5039 21.8145C56.9049 22.1595 56.2279 22.332 55.4727 22.332C54.5091 22.332 53.7116 22.0586 53.0801 21.5117C52.4551 20.9583 52.1426 20.1771 52.1426 19.168C52.1426 17.8594 52.6471 16.9121 53.6562 16.3262C54.2096 16.0072 55.0234 15.7793 56.0977 15.6426L57.0449 15.5254ZM75.8926 11.1211C76.3613 11.1211 76.8236 11.2122 77.2793 11.3945C77.735 11.5768 78.1484 11.8958 78.5195 12.3516C78.819 12.7227 79.0208 13.1784 79.125 13.7188C79.1901 14.0768 79.2227 14.6009 79.2227 15.291L79.2031 22H76.3516V15.2227C76.3516 14.819 76.2865 14.487 76.1562 14.2266C75.9089 13.7318 75.4531 13.4844 74.7891 13.4844C74.0208 13.4844 73.4902 13.8034 73.1973 14.4414C73.0475 14.7799 72.9727 15.1868 72.9727 15.6621V22H70.1699V15.6621C70.1699 15.0306 70.1048 14.5716 69.9746 14.2852C69.7402 13.7708 69.2812 13.5137 68.5977 13.5137C67.8034 13.5137 67.2695 13.7708 66.9961 14.2852C66.8464 14.5781 66.7715 15.0143 66.7715 15.5938V22H63.9492V11.375H66.6543V12.9277C66.9993 12.3743 67.3249 11.9805 67.6309 11.7461C68.1712 11.3294 68.8711 11.1211 69.7305 11.1211C70.5443 11.1211 71.2018 11.3001 71.7031 11.6582C72.1068 11.9902 72.4128 12.4167 72.6211 12.9375C72.9857 12.3125 73.4382 11.8535 73.9785 11.5605C74.5514 11.2676 75.1895 11.1211 75.8926 11.1211ZM85.9902 13.3672C85.3457 13.3672 84.8444 13.569 84.4863 13.9727C84.1348 14.3763 83.9134 14.9232 83.8223 15.6133H88.1484C88.1029 14.8776 87.8783 14.321 87.4746 13.9434C87.0775 13.5592 86.5827 13.3672 85.9902 13.3672ZM85.9902 11.0723C86.8757 11.0723 87.6732 11.2383 88.3828 11.5703C89.0924 11.9023 89.6784 12.4264 90.1406 13.1426C90.5573 13.7741 90.8275 14.5065 90.9512 15.3398C91.0228 15.8281 91.0521 16.5312 91.0391 17.4492H83.7539C83.793 18.5169 84.1283 19.2656 84.7598 19.6953C85.1439 19.9622 85.6061 20.0957 86.1465 20.0957C86.7194 20.0957 87.1849 19.9329 87.543 19.6074C87.7383 19.4316 87.9108 19.1875 88.0605 18.875H90.9023C90.8307 19.5065 90.502 20.1478 89.916 20.7988C89.0046 21.834 87.7285 22.3516 86.0879 22.3516C84.7337 22.3516 83.5391 21.9154 82.5039 21.043C81.4688 20.1706 80.9512 18.7513 80.9512 16.7852C80.9512 14.9427 81.4167 13.5299 82.3477 12.5469C83.2852 11.5638 84.4993 11.0723 85.9902 11.0723ZM97.6992 19.4609L105.131 10.1543H97.8848V7.60547H108.881V10.0176L101.352 19.4609H108.9V22H97.6992V19.4609ZM115.492 20.0371C116.306 20.0371 116.931 19.7474 117.367 19.168C117.803 18.5885 118.021 17.765 118.021 16.6973C118.021 15.6296 117.803 14.8092 117.367 14.2363C116.931 13.6569 116.306 13.3672 115.492 13.3672C114.678 13.3672 114.05 13.6569 113.607 14.2363C113.171 14.8092 112.953 15.6296 112.953 16.6973C112.953 17.765 113.171 18.5885 113.607 19.168C114.05 19.7474 114.678 20.0371 115.492 20.0371ZM120.941 16.6973C120.941 18.2598 120.492 19.5977 119.594 20.7109C118.695 21.8177 117.331 22.3711 115.502 22.3711C113.673 22.3711 112.309 21.8177 111.41 20.7109C110.512 19.5977 110.062 18.2598 110.062 16.6973C110.062 15.1608 110.512 13.8294 111.41 12.7031C112.309 11.5768 113.673 11.0137 115.502 11.0137C117.331 11.0137 118.695 11.5768 119.594 12.7031C120.492 13.8294 120.941 15.1608 120.941 16.6973ZM128.842 11.1016C129.942 11.1016 130.84 11.3913 131.537 11.9707C132.24 12.5436 132.592 13.4974 132.592 14.832V22H129.74V15.5254C129.74 14.9655 129.665 14.5358 129.516 14.2363C129.242 13.6895 128.721 13.416 127.953 13.416C127.009 13.416 126.361 13.8164 126.01 14.6172C125.827 15.0404 125.736 15.5807 125.736 16.2383V22H122.963V11.375H125.648V12.9277C126.007 12.3809 126.345 11.987 126.664 11.7461C127.237 11.3164 127.963 11.1016 128.842 11.1016ZM139.369 13.3672C138.725 13.3672 138.223 13.569 137.865 13.9727C137.514 14.3763 137.292 14.9232 137.201 15.6133H141.527C141.482 14.8776 141.257 14.321 140.854 13.9434C140.456 13.5592 139.962 13.3672 139.369 13.3672ZM139.369 11.0723C140.255 11.0723 141.052 11.2383 141.762 11.5703C142.471 11.9023 143.057 12.4264 143.52 13.1426C143.936 13.7741 144.206 14.5065 144.33 15.3398C144.402 15.8281 144.431 16.5312 144.418 17.4492H137.133C137.172 18.5169 137.507 19.2656 138.139 19.6953C138.523 19.9622 138.985 20.0957 139.525 20.0957C140.098 20.0957 140.564 19.9329 140.922 19.6074C141.117 19.4316 141.29 19.1875 141.439 18.875H144.281C144.21 19.5065 143.881 20.1478 143.295 20.7988C142.383 21.834 141.107 22.3516 139.467 22.3516C138.113 22.3516 136.918 21.9154 135.883 21.043C134.848 20.1706 134.33 18.7513 134.33 16.7852C134.33 14.9427 134.796 13.5299 135.727 12.5469C136.664 11.5638 137.878 11.0723 139.369 11.0723ZM148.471 18.6016C148.529 19.0964 148.656 19.4479 148.852 19.6562C149.197 20.0273 149.835 20.2129 150.766 20.2129C151.312 20.2129 151.745 20.1315 152.064 19.9688C152.39 19.806 152.553 19.5618 152.553 19.2363C152.553 18.9238 152.423 18.6862 152.162 18.5234C151.902 18.3607 150.935 18.0807 149.262 17.6836C148.057 17.3841 147.208 17.0098 146.713 16.5605C146.218 16.1178 145.971 15.4798 145.971 14.6465C145.971 13.6634 146.355 12.8203 147.123 12.1172C147.898 11.4076 148.985 11.0527 150.385 11.0527C151.713 11.0527 152.794 11.3197 153.627 11.8535C154.467 12.3809 154.949 13.2956 155.072 14.5977H152.289C152.25 14.2396 152.149 13.9564 151.986 13.748C151.68 13.3704 151.16 13.1816 150.424 13.1816C149.818 13.1816 149.385 13.276 149.125 13.4648C148.871 13.6536 148.744 13.875 148.744 14.1289C148.744 14.4479 148.881 14.679 149.154 14.8223C149.428 14.972 150.395 15.2292 152.055 15.5938C153.161 15.8542 153.992 16.248 154.545 16.7754C155.092 17.3092 155.365 17.9766 155.365 18.7773C155.365 19.832 154.971 20.6947 154.184 21.3652C153.402 22.0293 152.191 22.3613 150.551 22.3613C148.878 22.3613 147.641 22.0098 146.84 21.3066C146.046 20.597 145.648 19.6953 145.648 18.6016H148.471Z" fill="white"/>
</svg>
